<?xml version="1.0" encoding="utf-8"?>
<!-- Generator: Adobe Illustrator 25.2.1, SVG Export Plug-In . SVG Version: 6.00 Build 0)  -->
<svg version="1.1" id="Capa_1" xmlns="http://www.w3.org/2000/svg" xmlns:xlink="http://www.w3.org/1999/xlink" x="0px" y="0px"
	 viewBox="0 0 1381 551" style="enable-background:new 0 0 1381 551;" xml:space="preserve">
<style type="text/css">
	.st0{fill:#899496;}
	.st1{fill:#8B9595;}
	.st2{fill:#8A9697;}
	.st3{fill:#7D8788;}
	.st4{fill:#848C89;}
	.st5{fill:#88918F;}
	.st6{fill:#7A8484;}
	.st7{fill:#8B9697;}
	.st8{fill:#919B9C;}
	.st9{fill:#8E989A;}
	.st10{fill:#8D918C;}
	.st11{fill:#F5E7DF;}
	.st12{fill:#787B7D;}
	.st13{fill:#96A2A1;}
	.st14{fill:#D2BFAB;}
	.st15{fill:#F1D6C3;}
	.st16{fill:#8A9696;}
	.st17{fill:#FCF5EB;}
</style>
<path class="st0" d="M400.6,155c25.5-5.3,50.9-11.9,76.6-15.5c35.9-5,72.1-7.7,108.7-10.8c-0.6,3.3-2.2,6-2.8,8.8
	c-3.5,15.8-11.3,27.6-26.6,34.8c-13,6.1-25.1,14-40.9,17.4c3.4-6.5,6-11.6,9.2-16.8c2-2.4,3.5-4.7,4.9-7c-0.9-0.4-1.8-0.9-2.7-1.3
	c-0.9,2.8-1.9,5.6-3.4,8.6c-3,2.7-6.5,4.9-7.6,7.9c-3.6,10-11.7,13.7-20.6,16.7c-2.8,1-5.6,2.1-8.5,2.6c-9.8,2-19.7,3.7-31.4,5.9
	c5.5-10.5,9.5-18.2,14.5-27.8c-3.4,1-4.2,1-4.4,1.3c-1.1,2.1-1.8,4.4-2.9,6.4c-6.2,11.4-11.9,23.3-27.7,24
	c-12.2,0.5-24.3,1.7-36.4,2.6c-0.5-1-0.9-2-1.4-3c16.1-19.2,32.2-38.3,50-59.4c-4.7,3.2-8.2,4.7-10.4,7.2
	c-13.3,15.6-26.3,31.4-39.5,47c-3,3.5-6.5,8.4-10.3,9.1c-13.9,2.2-28,2.9-44.5,4.3c14.4-18.7,27.3-35.5,40.3-52.2c0,0,0,0,0.7,0
	C389.6,162.3,395.1,158.7,400.6,155 M476.2,167.2c3.3-5.9,6.7-11.8,10-17.8c-1.1-0.6-2.2-1.2-3.2-1.7c-4.9,9-9.8,18.1-14.7,27.1
	c0.9,0.6,1.9,1.1,2.8,1.6C472.6,173.7,474.1,171,476.2,167.2 M530.2,160c0.5,0.5,1,1,1.5,1.5c0.3-0.9,0.6-1.9,0.9-2.8
	C531.9,158.9,531.2,159,530.2,160z"/>
<path class="st1" d="M490.2,420.2c-77.3-4.7-140.7-33.4-180.3-103.7c-6.3-11.2-13.3-21.9-20.1-34.1c1.1-4,2.3-6.8,3.6-9.6
	c2.1,0.8,4.2,1.5,6.7,3.4c4.9,4,9.4,7.1,14,9.8c16.2,9.4,35.6,13.7,47.1,31.1c1,3.6,1.9,6.5,2.9,9.5c1-0.5,2.1-1.1,3.1-1.6
	c-2-2.9-4-5.7-5.9-9.2c1.7-1.2,3.9-2.8,5-2.2c7.7,3.8,15.3,7.8,22.6,12.3c4.5,2.8,8.4,6.4,12.5,9.6c2.2-3.7,4.6-4.2,11.7-1.2
	c13.8,6,27.5,11.9,41.3,18.5c1.8,2.6,3.6,4.6,5.3,6.6c0,0,0,0,0,0.6c1.8,2.6,3.6,4.6,5.4,6.5c0,0,0,0,0,0.6c1.2,2.6,2.4,4.6,3.6,6.5
	c0,0,0,0,0,0.5c0.6,1.4,1.2,2.2,1.8,3.1c0,0,0,0,0,0.6c1.8,3.2,3.6,5.8,5.3,8.4c0,0,0,0,0,0.6c2.4,4.4,4.8,8.2,7.2,11.9
	c0,0,0,0,0,0.7C485.4,406.8,487.8,413.5,490.2,420.2 M413.3,362.5c3.6,8,7.2,16.1,10.8,24.1c1.2-0.6,2.3-1.2,3.5-1.8
	c-4.8-7.9-9.5-15.8-14.3-24.9c-0.5-2.1-1-4.3-1.4-6.4c-0.8,0.3-1.7,0.7-2.5,1C410.6,356.7,411.8,359,413.3,362.5 M368.5,345.7
	c3.2,10.9,6.4,21.9,9.5,32.8c0.9-0.3,1.9-0.6,2.8-0.9c-4.3-14.9-8.7-29.9-13-44.8c-0.5,0.1-1.1,0.3-1.6,0.4
	C366.8,336.9,367.6,340.6,368.5,345.7 M405.7,344c0.4,2,0.7,3.9,1.1,5.9c0.9-0.4,1.8-0.7,2.7-1.1C408.7,347.2,407.8,345.6,405.7,344
	 M403.3,340.8"/>
<path class="st2" d="M327.2,284.2c30.9,4.7,61.6,10.1,92.6,14c34,4.3,66.9,11.7,97.6,27.1c37.4,18.8,68,44.9,87.8,83
	c-6.7,2-12.8,3.1-19,4.2c0.1,0.8,0.2,1.6,0.3,2.4c7.6-0.4,15.2-0.8,22.8-1.2c5.9,8.5,11.4,17.4,17.8,25.5
	c10.4,13,22.1,23.9,41.3,19.3c-7.5,7.1-16.7,9.2-27.1,9.2c-7.9-5.7-15-10.5-22.2-15.4c0,0,0,0,0-0.6c-1.8-2.6-3.6-4.6-5.6-7
	c-0.5-0.8-1-1.1-1.1-1.8c2.2-1.3,4-2.1,5.9-2.9c-0.1-0.6-0.3-1.1-0.4-1.7c-4.4,0.5-8.7,1-13.1,1.5c0,0,0,0-0.1-0.6
	c-1.8-1.4-3.6-2.2-5.3-3c0,0,0,0,0-0.5c-0.6-1.4-1.2-2.2-1.8-3.1c0,0,0,0-0.2-0.4c-0.6-0.9-1-1.2-1.6-1.4c0,0,0,0-0.2-0.5
	c-2.5-2-4.7-3.4-6.9-4.8c0,0,0,0-0.1-0.7c-3-3.2-5.9-5.8-8.6-8.9c-0.6-1.9-1.3-3.3-2.7-4.8c-3.4-1.8-6.1-3.4-8.8-5.1
	c-7.6-4.8-15.2-9.7-22.8-14.6c0,0,0,0-0.1-0.5c0.4-1.8,0.9-3.1,1.2-3.8c-8.5-3.8-17.3-7.8-26.2-11.8c0,0,0,0-0.4-0.5
	c-6.9-3.7-13.4-6.9-21.3-10.8c5.4-1.4,8.9-2.4,12.4-3.3c-16.4,1-30.7-5-44.7-11.4c-4.6-2.1-8.3-6.4-13-7.8
	c-15.8-4.5-31.9-8.2-49.3-12.5c20.8-5.9,39.6-11.3,58.4-16.6c-0.3-1.1-0.6-2.1-0.9-3.2c-12,3.6-24.1,7.2-36.1,10.8
	c-14.3,4.4-28.4,6.1-42.1-2.3c-6.3-3.8-13-7-19.5-10.4c-12.1-6.2-24.3-12.3-36.3-18.7C327.1,288.4,327.4,285.8,327.2,284.2
	 M476.4,340.4c-4.6-0.3-9.1-0.7-13.7-1c0,1.1,0.1,2.3,0.1,3.4C467,342.3,471.2,341.7,476.4,340.4 M483.9,338.4c1,0.2,2,0.4,3,0.6
	c0-0.7,0-1.4,0-2.1C485.9,337,484.9,337.2,483.9,338.4z"/>
<path class="st1" d="M508.1,237.7c-21.8,9-45,11.1-69.1,12.1c-5.9-5.3-9.6-2.6-13.1,1.3c-0.8,0.2-1.7,0.3-3.4-0.3
	c-1.9-1.3-2.8-2.2-3.9-2.3c-11.9-1-23.9-2-35.9-2.6c-1.1-0.1-2.3,2.7-3.5,4.1c-0.8,0-1.7,0.1-3.2-0.7c-9.5-5.3-18.2-9.7-26.8-14.4
	c-3.3-1.8-6.3-4.2-9.4-6.3c0,0,0,0-0.1-0.6c0.7-2.6,1.5-6.2,2.2-6.2c6.7,0.3,13.4,1.3,21.6,2.2c-0.2,0.1,1.5-2,3.4-2.3
	c7-1,14.2-1,21.2-2.1c8.8-1.4,17.6-0.5,26.7-2.3c16.2-3.1,33.7-6.4,50.6,1.8c9.5,4.6,20.4,6,30.7,8.9c0.2-0.8,0.5-1.5,0.7-2.3
	c-12-4.3-24.1-8.5-36.1-12.8c8.9-3.9,18.4-4.6,26.9-8c14.7-5.9,29.3-5.3,44.5-3.6c12.1,1.3,24.4,0.3,36.7,0.3c0-0.4,0-0.8,0-1.2
	c-1.1-0.1-2.2-0.3-3.4-1.1c-1.6-2-3.2-3.3-4.8-4.6c-2-1.6-4.7-2.8-5.6-4.8c-0.6-1.3,1.5-3.7,2.4-5.7c2.6,1.3,5.9,2,7.7,4
	c3.2,3.4,5.7,5.8,10.2,2.1c1.5-1.3,3.6-2.1,5.6-2.5c8-1.7,11.9-6.3,11.9-15.1c5.5-0.8,10.5-1,15.4-1.3c-23.4,29.2-53.3,49.4-88.8,62
	c-6.1-2.1-11.3-3.5-16.8-5C505,232.4,506.5,235,508.1,237.7 M413.9,223.6c0.7,0,1.4,0,2,0c0-0.3,0-0.8,0-0.8
	C415.3,222.8,414.6,222.8,413.9,223.6z"/>
<path class="st3" d="M565.4,200c1.1,0.1,2.2,0.3,3.3,0.4c0,0.4,0,0.8,0,1.2c-12.2,0-24.6,1-36.7-0.3c-15.2-1.6-29.8-2.2-44.5,3.6
	c-8.5,3.4-18,4.2-26.9,8c12,4.3,24.1,8.5,36.1,12.8c-0.2,0.8-0.5,1.5-0.7,2.3c-10.3-2.8-21.3-4.3-30.7-8.9
	c-16.9-8.2-34.4-4.9-50.6-1.8c-9.1,1.7-17.9,0.9-26.7,2.3c-7,1.1-14.2,1.1-21.2,2.1c-1.9,0.3-3.6,2.4-3.4,2.3
	c-8.3-0.9-14.9-1.9-21.6-2.2c-0.7,0-1.5,3.6-2.8,6.1c-5.7-1.2-10.7-4.1-15.9-4.4c-20.3-1.1-40.6-1.6-61-1.8c-4.7-0.1-9.4,1.7-14,2.6
	c-13.8-3.8-27.6-7.6-41.4-11.4c-0.4,1.2-0.8,2.5-1.2,3.7c9.2,3.8,18.4,7.5,27.7,12.2c-0.8,1.2-1.8,1.5-3.5,1.8
	c-13.3-3.7-26-7-38.4-11.1c-14.6-4.9-29.3-9.6-43.2-16c-24.5-11.3-48.5-23.7-72.5-36c-2-1-2.8-4.7-4.1-7.2
	c24,10.9,47.3,24,72.3,32.1c27,8.7,55.3,13.6,83.3,18.3c24.6,4.1,44.9-8.6,65.3-20.7c0.6,0.3,0.7,1.1,0.5,1.8
	c-12.5,8.3-25,16-37.4,23.7c0.2,0.8,0.4,1.7,0.6,2.5c7.5,0,15,0,23.1,0.5c7.9,0.7,15.4,1,23.6,1.2c8.7-0.6,16.7-0.7,24.5-2
	c5-0.8,11.3-1.9,14.3-5.2c6.3-6.9,10.8-15.4,16.5-23.5c1.4-1.9,2.2-3.5,3.5-5.4c0.7-1.3,1-2.3,1.3-3.3c0,0,0,0,0.6-0.1
	c5.6-4.8,10.5-9.5,16.1-14.3c1.4,0,2.2,0,3,0c-12.9,16.8-25.8,33.5-40.3,52.2c16.5-1.5,30.7-2.1,44.5-4.3c3.8-0.6,7.3-5.6,10.3-9.1
	c13.3-15.6,26.2-31.5,39.5-47c2.2-2.6,5.7-4,10.4-7.2c-17.7,21.1-33.8,40.3-50,59.4c0.5,1,0.9,2,1.4,3c12.1-0.9,24.3-2.1,36.4-2.6
	c15.8-0.7,21.5-12.6,27.7-24c1.1-2.1,1.9-4.3,2.9-6.4c0.2-0.3,1-0.3,4.4-1.3c-5,9.5-9.1,17.3-14.5,27.8c11.6-2.2,21.5-3.9,31.4-5.9
	c2.9-0.6,5.7-1.7,8.5-2.6c8.9-3,17-6.8,20.6-16.7c1.1-3.1,4.6-5.3,7.6-7.9c0.6-0.1,0.6-0.1,0.6-0.1c-2.6,5.1-5.2,10.1-8.6,16.7
	c15.8-3.4,27.9-11.3,40.9-17.4c15.3-7.2,23.1-19,26.6-34.8c0.6-2.8,2.2-5.5,3.6-8.8c0.6-0.8,0.9-1,1.7-0.4c-1.1,8.4-2.7,16-4.2,23.6
	c0.6,0.5,1.3,1,1.9,1.5c9.4-12.6,18.8-25.3,28.2-37.9c-0.8-1.1-1.6-2.3-2.4-3.4c-3.5,0.8-7,1.7-10.5,2.5c-0.8,0.2-1.6,0.4-3-0.2
	c-0.6-4-0.6-7.3-0.6-10.6c9.6,0.6,18.6,2.5,24.6,11.5c-2.4,5-4.4,9.1-6.4,13c6.2,4.5,8-0.7,10.6-3.9c0.3,1,0.7,1.9,0.5,3.9
	c-2,1.8-3.5,3.5-4.8,3.3c-11.1-1.8-17.3,4.8-23.3,13.1c-0.8,1.9-1.1,3.4-1.9,5c-1.4,1.2-2.2,2.4-3,3.5c0,0,0,0-0.6,0
	c-6.1,4.1-11.6,8.1-17.3,12.2c12.4,0.7,23.5,1.3,34.6,2c-0.6,0.9-1.3,1.8-2.2,3.2c-5.3,0.7-10.3,1-16.5,1.7
	c-9.5,0.2-18.6-2.6-25.7,0.1c-15.9,6-30.9,14.6-47.5,22.8C535.1,197,550.2,198.5,565.4,200z"/>
<path class="st0" d="M581.6,445.1c-22.6-9.6-44.9-20.2-69.9-22.2c-5-0.4-10-1-15.6-2.5c-4.8-7.9-8.9-14.7-13.1-21.6c0,0,0,0,0-0.7
	c-2.4-4.4-4.8-8.1-7.2-11.9c0,0,0,0,0-0.6c-1.8-3.2-3.6-5.8-5.4-8.3c0,0,0,0,0-0.5c-0.6-1.4-1.2-2.2-1.8-3.1c0,0,0,0,0-0.6
	c-1.2-2.6-2.4-4.6-3.6-6.5c0,0,0,0-0.1-0.6c-1.8-2.6-3.6-4.6-5.3-6.6c0,0,0,0,0-0.6c-1.2-2.6-2.4-4.6-2.8-6.6
	c15.1,5.7,29.6,11.1,43.8,17.2c6.5,2.8,11.9,8.5,20,6.1c0,0,0,0,0.1,0.6c8.4,5.6,16.7,10.5,25,15.5c0,0,0,0,0.1,0.6
	c10.8,8.6,21.4,16.5,32.4,25c1.9,2.5,3.5,4.6,4.7,6.7c-0.8,0-1.1,0-2,0.1c-0.5,2.3-0.6,4.6-0.4,6.8
	C580.8,435.6,581.2,440.3,581.6,445.1z"/>
<path class="st1" d="M755.1,216.2c-6.6-9.2-6-19.8-5-30.1c3.1-30.3,16.3-56.3,35.8-79.3c0.7-0.8,1.8-1.2,4.2-2.6
	c-1.5,15.8-2.8,30.2-4.1,44.7c0.6,0.2,1.1,0.4,1.7,0.6c12.2-18.9,24.3-37.8,37.8-58.7c9.1,32.8,0.2,58.1-21.6,80.5
	c-5,1.1-8.8,1.8-12.6,2.5c-0.6-4-1.5-8-1.7-12c-0.1-2.3,0.7-4.7,1.1-7.1c-0.7-0.2-1.4-0.4-2.1-0.6c-6.9,18,0.5,42.1-22,54.9
	c3-18.9,5.9-36.5,8.7-54c-0.7-0.1-1.5-0.2-2.2-0.3c-2.9,14.6-4.9,29.5-9,43.8C762,204.4,765.8,214.3,755.1,216.2z"/>
<path class="st4" d="M851.9,378.9c-0.9-0.4-1.8-0.9-3.4-2c-1.6-1.5-2.6-2.3-3.9-3.6c-3.1-1.4-5.8-2.4-9.1-3.7c-3.4-1.9-6.1-4-9.2-5
	c-28.4-9.9-56.6-20.4-85.3-29.1c-13.8-4.1-28.7-4.5-43.8-6.6c-2.1,0.8-3.5,1.6-4.9,2.3c-4.6-1.9-9.2-3.8-14.1-6.9
	c-2.8-3.4-5-6.8-7.9-7.6c-9.2-2.5-18.7-4.1-28.5-6.1c1-1.4,1.7-2.4,2.4-3.3c0,0,0,0,0.7,0c2.5,0,4.4,0.1,6.2,0.1
	c29.4,6.1,58.7,12.3,88.1,18.1c4.5,0.9,9.4-0.4,15-0.1c2.6,11.6,12.2,8.6,19.6,10.6c2,0,3.3,0.1,5.1,0.6c3.9,1.3,7.3,2.1,10.7,2.9
	c27.5,10.5,56.4,10.8,85.1,11.2c3.8,0.1,7.6-2.2,12.4-3.5c3.9-0.7,7.4-0.4,9.7-1.9c7.9-5.2,15.4-10.9,23-16.4
	c0.1,0.1,0.2,0.2,0.1,0.8c-1.8,3.1-3.3,5.9-5.4,8.1c-5.3,5.4-10.8,10.4-16.3,15.6c-17.3,1.2-34.6,2.3-52.3,3.5
	c25.8,8.4,52.6,10.4,80.3,12.9c1.4,2.2,2,3.7,2.5,5.2c-7.3-0.6-14.7-1.1-22-1.7c-0.3,1-0.7,1.9-1,2.9c18.1,7.3,36.2,14.7,54.3,22.8
	c-25.3-5.2-50.6-11.4-76-17c-5.8-1.3-12-0.8-18.4-1.1c-0.4,0-1.2,0-1.6-0.4c-1.3-0.8-2.3-1.1-3.5-2c-3-1.8-5.8-3-8.7-4.2
	C852,375.7,852,377.3,851.9,378.9z"/>
<path class="st5" d="M644.2,307.5c-0.6,0.9-1.3,1.8-2.3,3.3c9.8,2,19.3,3.5,28.5,6.1c2.9,0.8,5.1,4.2,7.6,7.2
	c-8.4-0.8-16.8-2.4-26.4-4.3c-23.5-5.3-45.3-12.7-68.5-12.5c1.3,0.7,2.6,1.3,3.9,2.6c0,1,0,1.4,0,1.8c-14.1-4.5-27.9-11.1-42.4-13.2
	c-35-5.3-70.3-8.4-105.5-12.6c-41.6-5-83.4-8.9-123.9-20.7c-10.8-3.1-22-5.1-34.1-7.8c-5-1.6-8.8-3-12.7-5.1
	c-2.6-2.6-4.9-5.6-7.7-6.1c-6.3-1.1-12.8-1-19.4-1.7c-0.6-0.9-1-1.2-2.2-1.7c-5.6-2.5-10.5-4.7-14.9-7.1c2.6-1.8,4.6-3.4,6.6-5
	c1-0.3,2-0.6,3.3-1.4c1.8,0,3.3,0.3,5.4,1.7c3.5,1.7,6.4,2.4,9.4,3.1c8.6,2.7,17.3,5.4,26.1,9c-4,4.4-2.2,6.4,2,7
	c3.7,0.5,7.5,0.2,11.4,0.5c0,0.1,0-0.1-0.1-0.8c0-1.3,0-2,0-2.8c2.8,0.7,5.6,1.3,8.5,2.9c-1.9,2.5-3.9,4.2-6.2,6
	c12.9,7.7,26.9,5,39.7,9.7c11,4,23.8,4.7,35.8,6.9c23.1,4.3,46.7,5.7,70.1,8.4c10.4,1.2,20.8,2.6,31.2,3.2c2.3,0.1,4.9-2.6,7.3-4
	c2.4,0.2,4.9,0.3,8.2,1.3c7.2,7.3,14.3,7.5,20.4,1.6c24.7,3.2,49.5,6.4,74.2,9.6c15.9,2,31.8,4.1,48.6,6.7
	C632.4,302.3,638.3,304.9,644.2,307.5z"/>
<path class="st6" d="M1258.3,361.4c1.5,0.4,2.9,0.7,4.8,2c-2.4,1.7-5.5,3.7-8.1,3.3c-17-3.1-33.9-6.8-50.9-10
	c-3.2-0.6-6.7,0.3-10.1,0.6c-12.9,3.1-25.8,6.1-38.8,9.2c0,0.6,0.1,1.2,0.1,1.8c3.4,1.2,6.8,2.4,10.9,4.5c0,1.5-0.7,2.6-1.4,2.6
	c-14.7,0.1-29.4-0.4-44,0.4c-6.2,0.3-12.2,3.3-18.3,5.1c-5.9-1.2-11.7-3.3-17.6-3.4c-16.8-0.4-33.6,0-51.9,0
	c-4.2-0.1-6.7-0.1-9.3-0.7c0-1.3,0-2,0-2.7c1.3-0.1,2.7-0.3,5,0.1c2,0.2,3-0.1,4-0.4c7-2.6,13.9-5.3,21.9-8.4
	c17.2-13.3,33.3-26.3,49.8-38.7c3.4-2.6,8.2-3.2,11.9-4.5c-13.8,10.8-27.1,21.2-40.2,31.9c-4.6,3.8-8.6,8.4-13.2,12.7
	c-0.3,0.2-0.4,0.4-0.5,0.5c0.2-0.2,0.5-0.4,1.5-0.6c10.4,0.4,19.3-0.6,26.6-8.3c1.7-1.8,5.8-1.4,8.8-2.1
	c-5.4,4.7-10.9,9.5-17.7,15.4c10.2,0.6,19.2,3.5,27.9-4.5c9,2.2,16.3,0.8,23.3-3.2c10.2-5.8,20.4-11.4,30.6-16.4
	c-8.5,6.4-16.9,12.3-25.3,18.1c0.3,0.7,0.6,1.4,0.9,2.1c14.1-4.6,28.2-9.2,42.3-13.7c6.4-2.6,12.8-5.3,20.2-8
	c7.7,4.8,13.3,0.7,15.7-4.2c6.2-12.4,10.9-25.6,16.2-38.4c2.9-7,5.9-14,8.9-21c0,0,0,0,0,0.7c-2.5,12.2-4.7,23.7-7.5,35
	c-1,4-0.5,5.7,3.7,5.4c-0.2,0.8-0.3,1.7-1.2,3.3c-0.5,1.7-0.2,2.7,0,3.7c1.1-1,2.2-2,3.3-3c1.3-1.8,2.6-3.5,5-5.6
	c6.5-4.4,11.8-8.6,17.3-12.7c2.6-1.9,5.4-3.6,8.1-4.9c4-0.7,8.2-1.4,11.9-3.2c12.8-6.2,25.5-12.7,38.2-19c0.4,0.8,0.9,1.7,1.3,2.5
	c-2.4,1.4-4.8,2.9-7.3,4.2c-9.9,5.3-20,10.4-29.8,15.9c-10.1,5.6-20.1,11.4-29.9,17.6c-2.8,1.8-7.2,4.4-2.1,8.7
	c-5.3,1.5-10.7,3.1-16,4.6c0.1,1,0.3,1.9,0.4,2.9c8.3,0.7,16.6,1.4,25,3c-13.2,3-27.5,0-40,8.7c5.2,2.2,10.4,3.3,15.7,3.8
	c9,0.8,18.1,1.2,27.2,1.8c-2.1,0.5-4.2,1.1-7.7,1.6c-10.2,0-18.9,0-27.6,0c0,1.3,0,2.6,0,4C1239.7,361.4,1249,361.4,1258.3,361.4
	 M1230.4,337c-0.3-0.1-0.7-0.2-1.1-0.3C1229.5,337,1229.8,337.2,1230.4,337 M1233,333.8c0.3-0.2,0.5-0.4,0.8-0.6
	C1233.5,333.3,1233.1,333.3,1233,333.8z"/>
<path class="st0" d="M1103,381.3c5.8-2.3,11.8-5.3,17.9-5.6c14.6-0.8,29.3-0.2,44-0.4c0.7,0,1.4-1.1,1.8-2.2
	c9.1,1.6,19,2.4,27.9,5.9c16.1,6.5,31.6,14.7,47,23.3C1194,405.3,1146.7,406.9,1103,381.3z"/>
<path class="st7" d="M1052.7,385.9c19.1,6.4,37.7,14.1,52.8,27.8c16.9,15.3,33.3,31.2,49.4,47.9c-14.4-5.4-28.8-10.6-43.1-16.2
	c-15.2-5.9-30.5-11.8-45.4-18.3c-4.5-2-8.1-5.9-11.9-9.8c5.1-6.6,9.4-1.5,13.6,0.1c11.6,4.4,23.1,9.2,34.7,13.9
	c0.3-0.8,0.7-1.7,1-2.5c-12-5.3-24.5-9.7-35.8-16.3c-11-6.4-23.4-11.9-29.1-23.2C1044.1,388,1048.4,386.9,1052.7,385.9
	 M1113.2,435.2c-1.8-1.3-3.5-2.7-5.3-4c-0.4,0.6-0.8,1.3-1.2,1.9c2.2,1.1,4.4,2.2,6.8,3.8C1113.5,436.7,1113.4,436.6,1113.2,435.2z"
	/>
<path class="st2" d="M1163.5,346.9c-10.2,5.7-20.5,11.2-30.7,17c-7,4-14.3,5.4-22.8,2.8c17.4-27.5,42.2-47.2,69.9-63.6
	c5.9-3.5,12.1-6.4,18.9-9c0.1,5.4,0.5,10.7-1.5,14.8c-3.3,7.1-8.2,13.4-12.4,20.1c0,0,0,0-0.4,0.2c-0.7,0.7-1.1,1.2-1.8,2.1
	c-2.5,1.9-4.6,3.3-7.3,5c-3.2,3.1-5.8,5.9-8.4,8.8c0,0,0,0-0.6,0C1165.2,345.7,1164.3,346.3,1163.5,346.9
	C1163.5,346.9,1163.5,346.9,1163.5,346.9z"/>
<path class="st7" d="M815.7,172.8c2.8-2.2,5.6-4.4,9.8-6.7c3.7-0.1,6.1-0.1,8.6,0.1c0.1,0.1,0-0.1,0-0.9c1.1-8.9,6.2-8.7,12.3-6.4
	c19,4.8,38.1,9.6,57.1,14.4c-0.1,1.1-0.2,2.1-0.3,3.2c-12.1,4.2-24.3,8.3-36.3,12.6c-2.6,0.9-4.9,2.6-8.1,4.7
	c-23.4,1.6-46,2.4-70.2,3.2c3-3.7,5.2-8.5,7.4-8.6c9.2-0.3,16.3-6.2,24.7-7.8c9.3-1.7,18.7-2.7,28.1-3.9c6.7-0.9,13.3-1.9,20-2.8
	c-0.1-0.8-0.1-1.6-0.2-2.5c-3.1,0-6.3-0.4-9.4,0.1c-9.4,1.4-18.6,3.8-28,4.4C826.1,176.2,820.9,173.9,815.7,172.8z"/>
<path class="st6" d="M993.2,317.8c-7.7,1-15.5,2.1-24,2.5c-0.9-1.2-1-1.8-1-2.4c0.5-2.5,1.1-5,2.3-8.1c2.7-2.1,5.9-3.2,6.5-5.1
	c3.8-11.7,6.5-23.7,10.5-35.3c2.1-6.2,6.2-11.7,9.5-17.5c0,0,0.1,0,0.1,0.8c-3.7,10.6-7.5,20.5-11,30.4c-2,5.7-3.5,11.6-5.3,17.4
	c1,0.3,2.1,0.7,3.1,1c1.3-3.4,2.2-7.1,4.1-10.1c2.2-3.6,5.3-6.7,8-10c-1.5,4.1-3,8.3-4.5,12.6c11.7-0.8,16.1-6.1,18.9-16.6
	c2.5-9.5,7.6-18.3,12.4-26.8c-1.1,5.5-3.8,10.2-4.6,15.2c-0.6,3.7,1.3,7.8,2.1,11.8c3.4-1.7,6.8-3.3,10.2-5c2.1-1,4.1-1.9,6.8-3
	c1.9-1.2,3.3-2.3,4.7-3.3c0,0,0,0.1,0,0.1c7.9-7.3,15.8-14.6,24.3-21.5c1.2,7.6,5,2.9,7.2,1.9c10.5-4.7,20.8-9.8,31.2-14.7
	c0.5,1,1,2,1.5,3c-17.9,9.9-35.7,19.8-53.6,29.7c0.4,0.9,0.9,1.8,1.3,2.7c5.3-1.6,10.4-3.6,15.8-4.6c2.1-0.4,4.5,1.5,6.8,2.3
	c-0.2,0.7-0.3,1.3-1.4,2.4c-3.3,1.6-5.8,2.8-9,4c-22.8-0.8-40.1,10.4-56.9,23c10.9-1.7,21.9-3.4,32.8-5.1c0,0,0.1,0-0.4,0.5
	c-9.7,3.2-19.1,5.4-28.3,8.6c-9.7,3.3-19.1,7.4-30.5,12c4.7,2.1,6.8,3.1,9.1,4.4C992.4,316.2,992.8,317,993.2,317.8 M1004.4,295.6
	c-1.7,0.7-3.4,1.5-5.2,2.2c0.3,0.6,0.5,1.2,0.8,1.8C1001.8,298.5,1003.5,297.4,1004.4,295.6 M1014.5,279.5c0,0.7,0,1.4,0,2.1
	c0.3,0,0.8,0,0.8,0C1015.4,280.9,1015.4,280.2,1014.5,279.5 M1064.5,251.7"/>
<path class="st3" d="M836.1,370c2.7,1,5.4,2,8.1,3.6c-0.3,1.6-0.7,2.5-1,3.4c-7.9,0-15.9,0-24.8,0c13.8,6.1,27.1,12,40.5,19.2
	c0.1,1.8,0.1,2.3,0,2.8c-12.7-4.8-25.2-10.2-38.1-14.4c-20.7-6.7-41.7-12.5-62.6-18.7c-0.5,0.8-1,1.6-1.5,2.4
	c3.2,4,5.9,8.4,9.6,11.9c13.1,12.5,26.2,25,39.9,36.8c2.6,2.2,8,1,12.6,1.9c-2.1,3.5-4.7,6.4-8.8,11c6.2,1.7,11.5,3.2,16.8,4.8
	c-2,2.5-4.1,5-6.7,8.3c1.8,3.5,3.9,7.9,6.3,13.3c-0.8,1.9-1.8,2.6-2.7,3.4c-12.5-21.2-23.1-43.8-43.4-60.8
	c-3.9-1.9-7.3-2.8-10.7-3.6C758.6,377,745,361.5,726.2,351c-4.6-2.6-9-5.5-13.3-8.9c1.1-1.2,2.1-1.9,3.6-2.4
	c9.9,5.3,19.1,10.8,28.5,15.6c27.4,14,57.5,14.9,87.3,16.6C833.6,372,834.9,370.6,836.1,370 M754.6,365.7l-0.4-0.2
	C754.2,365.5,754.3,366,754.6,365.7z"/>
<path class="st1" d="M918.2,420.2c15,0.6,26.7,8.8,36.2,18.9c12,12.9,22,27.6,31.7,42.9c-21.3-5-42.7-8.6-58.2-25.5
	c0.3-1.9,0.7-3.5,0.1-4.4c-1.9-3.1-4.2-6-6.4-9c0.4-0.9,0.8-1.8,1.3-2.7c4.7,0.6,9.4,1.2,14.1,1.9c0.2-0.6,0.5-1.2,0.7-1.7
	c-10.8-5.1-21.6-10.2-34.2-16.1C910.2,422.5,914.2,421.4,918.2,420.2 M952,449.6c-1.7-1.9-3.5-3.7-5.2-5.6c-0.7,1.1-1.4,2.1-2.2,3.2
	c2.5,1.2,5,2.3,7.7,4.6c1.1,0.5,2.3,1,3.4,1.5c0.2-0.7,0.3-1.4,0.5-2.1C954.9,451,953.5,450.9,952,449.6 M940.8,444.4
	c0.4,0.1,0.7,0.2,1.1,0.3C941.7,444.5,941.4,444.2,940.8,444.4z"/>
<path class="st8" d="M1116.9,321.8c-4.2,1.5-9,2.2-12.4,4.8c-16.5,12.4-32.5,25.4-49.3,38.2c5.7-34.8,24.3-60.1,57.7-74
	c1.2,8.2-5.5,11.7-9.5,16.4c-9.6,11.3-20.3,21.7-30.3,32.6c-1.9,2-2.8,4.9-4.1,7.4c25.2-16.7,38.1-46.4,68.2-59.5
	c-1.7,5-2.8,8.2-3.9,11.5c-0.2,0.9-0.5,1.7-1.6,2.9c-1.3,0.9-1.7,1.4-2.1,1.9c0,0,0-0.1-0.5,0.1c-3.1,4.3-5.7,8.4-8.3,12.5
	c0,0-0.1-0.1-0.6,0.2c-0.8,1.7-1.1,3.2-1.8,4.8C1117.5,321.7,1117.2,321.7,1116.9,321.8z"/>
<path class="st9" d="M635,293.8c10.8-8.5,21.8-16.7,32.2-25.5c4.4-3.7,7.6-8.7,11.9-13.9c1.4-1,2.1-1.3,2.8-1.6
	c15.4-10.7,25.3-26.1,33-42.4c7.8-16.6,12.6-34.6,18.5-52c1.2-3.4,1.8-6.9,3.4-11.1c3-0.3,5.3,0.2,7.6,0.8
	c-5.9,20.1-10.6,40.7-18.2,60.2c-7.7,20.1-21.2,36.9-37.8,51c-1.6,1.3-2.2,3.8-3.9,6.6c-4.4,2.8-8.3,4.7-11.9,6.9
	c-0.6,0.4,0,2.7,0.1,4.1c-10.6,6.2-21.3,12.4-32.1,19.2c-0.2,0.6-0.1,0.6-0.6,0.7c-0.8,0.7-1.2,1.2-2.2,1.7
	C636.6,296.8,635.8,295.3,635,293.8z"/>
<path class="st6" d="M815,172.9c5.8,1.1,11.1,3.4,16.2,3c9.4-0.7,18.7-3,28-4.4c3.1-0.5,6.2-0.1,9.4-0.1c0.1,0.8,0.1,1.6,0.2,2.5
	c-6.7,0.9-13.3,1.9-20,2.8c-9.4,1.3-18.8,2.2-28.1,3.9c-8.5,1.6-15.6,7.5-24.7,7.8c-2.2,0.1-4.4,4.9-7.4,8.6
	c24.2-0.9,46.8-1.7,70.3-2.6c6.9-0.2,12.9-0.2,18.9-0.2c0.2,1,0.3,2,0.5,3c-7.7,2.5-15.3,5-23.8,6.8c-1.4-1.6-2-3.2-2.7-3.3
	c-22.4-3.2-44.5-3.4-65.4,7.3c-2.3,1.2-5.1,2.3-7.6,2c-8.3-0.7-11.5,4-12.8,11.1c-2.4,0.7-4.9,1.5-8.6,2.1c-1.8-0.8-2.3-1.5-2.8-2.3
	c0.2-1.2,0.4-2.4,0.6-4.2c10.8-2.5,7-12.3,8.7-18.3c4.1-14.3,6.2-29.2,9-43.8c0.7,0.1,1.5,0.2,2.2,0.3c-2.8,17.5-5.6,35.1-8.7,54
	c22.6-12.8,15.2-36.9,22-54.9c0.7,0.2,1.4,0.4,2.1,0.6c-0.4,2.4-1.2,4.7-1.1,7.1c0.3,4,1.1,8,1.7,12c3.8-0.7,7.6-1.5,12.1-2.2
	c-0.7,2.2-2.1,4.4-4.2,7.4c0.5,0.9,1.6,1,2.7,1.1C806,177.6,810.2,175.3,815,172.9z"/>
<path class="st7" d="M894.6,94.1c12-7.4,24.4-13.9,38.4-16.2c0.8,0.6,1.6,1.2,2.4,1.9c-5.9,11.6-11.8,23.2-17.4,35.4
	c0.2,0.6,0.3,0.6-0.3,0.5c-1.8,0.6-2.9,1.3-4.6,1.9c-5.8-0.3-7.6,2.5-7.3,7.2c-1.6,1.4-3.2,2.8-5.6,4.8c-3,2.5-9.4,1.7-5.9,7.6
	c-5.6,0-10.5,0.1-14.8-0.2c4.8-2.4,9-4.5,14.3-7.1c-2.2-0.9-3.2-1.2-4.1-1.6c0,0,0,0,0.3-0.5c4.9-6,9.5-11.5,14.2-17
	c-0.5-0.4-1.1-0.8-1.6-1.2c-9.1,8.6-18.2,17.2-27.9,25.9c-5.2,0.5-6.2-1.1-4.8-5.6c3.7-12.3,11.1-21.8,20.9-29.8
	C892.2,98.6,893.2,96.1,894.6,94.1z"/>
<path class="st7" d="M1254.1,331.1c-5.8-4.3-1.5-7,1.3-8.7c9.8-6.1,19.8-11.9,29.9-17.6c9.8-5.5,19.9-10.6,29.8-15.9
	c2.5-1.3,4.9-2.8,7.3-4.2c-0.4-0.8-0.9-1.7-1.3-2.5c-12.7,6.4-25.4,12.9-38.2,19c-3.7,1.8-7.9,2.5-11.9,3.2
	c-0.1-0.6-0.1-0.6,0.5-0.8c12.2-7,23.5-14.6,35.7-20.2c10.8-5,22.6-7.8,34-11.6C1320.7,303.7,1295.3,328.3,1254.1,331.1z"/>
<path class="st9" d="M996.9,251.9c-3.2,5.8-7.3,11.3-9.4,17.5c-4,11.6-6.7,23.6-10.5,35.3c-0.6,1.9-3.8,3-6.6,4.4
	c-9.8-16-6.1-31.3,2.5-45.7c9.8-16.3,24.4-26.8,43.8-34.1c-7.1,18.3-13.4,34.8-20.3,51.6c-3.2,3.7-6.3,6.8-8.5,10.4
	c-1.9,3.1-2.8,6.7-4.1,10.1c-1-0.3-2.1-0.7-3.1-1c1.7-5.8,3.3-11.7,5.3-17.4c3.5-10,7.3-19.8,11.4-30.6c0.3-1.6,0.3-2.2,0.3-2.8
	C997.4,250.4,997.2,251.2,996.9,251.9z"/>
<path class="st4" d="M241.2,244.8c6.4,0.4,12.9,0.2,19.2,1.3c2.8,0.5,5.1,3.5,7,5.9c-6.2-0.9-11.6-2.4-17.1-3.8
	c-0.3,0.8-0.6,1.6-1,2.4c10.9,5.4,21.8,10.8,32.8,16.2c3.5,1.7,7,3.4,10.9,5.6c-0.9,3.2-2.1,6-3.4,9.4c-6.4-4.1-12.4-9.4-19-13.7
	c-36.8-23.9-78.3-37.5-118.2-54.8c-38.8-16.8-76.2-36.6-114.2-55.3c-4.1-2-10.4-4.1-5-11.2c3.7,3.3,5.7,8,9.2,9.9
	c21.1,11.1,42.1,22.5,63.9,32.1c34.2,15,68.9,28.7,103.4,42.8c4.3,1.8,9,2.8,13.5,4.2c5,2.2,9.9,4.4,15.7,7.3
	C240.2,244.2,240.7,244.6,241.2,244.8z"/>
<path class="st3" d="M619.6,235.3c8.4-18.4,26.1-22.2,37.8-8.8c6.7,7.7,7.9,16.3,2.3,24.4c-7.8,11.2-9.8,12.6-25.1,9.7
	c-7.9-1.5-14.4-8.9-15.4-17.5C618.9,240.8,619.3,238.4,619.6,235.3z"/>
<path class="st9" d="M1239,323.1c-4.7,0.7-5.2-0.9-4.2-5c2.8-11.3,5.1-22.8,7.9-35.2c0.3-1.6,0.3-2.2,0.3-2.8
	c-0.2,0.8-0.4,1.5-0.6,2.3c-3,7-5.9,14-8.9,21c-5.3,12.8-10,26-16.2,38.4c-2.5,5-8.1,9-15.2,3.9c8.6-19.2,17.1-38.4,26.8-57
	c7.1-13.5,18.3-23.8,32.9-33.5C1253.9,278.9,1246.7,300.8,1239,323.1z"/>
<path class="st8" d="M899.1,353.5c4.8-5.3,10.3-10.4,15.6-15.7c2.1-2.2,3.6-4.9,6-8.1c6.3-5.1,12-9.6,17.6-14
	c-0.9-1-1.9-2.1-2.8-3.1c-5.2,5.4-10.4,10.9-15.6,16.3c-7.6,5.5-15.1,11.3-23,16.5c-2.3,1.5-5.8,1.2-9.2,1.5
	c16-26,40.7-43.1,69.1-47.8c-2.6,13.5-10.4,23.1-19.1,33.8c-3.8,4.7-7.1,8.3-10.5,11.9C918.1,347.6,908.9,350.7,899.1,353.5
	 M942.5,310.7c-0.7,0-1.4,0-2.1,0c0,0,0,0.5,0,0.8C941.1,311.5,941.8,311.5,942.5,310.7z"/>
<path class="st9" d="M694.4,282.6c25-14.9,51.3-25,81.1-21.4c7.3,0.9,14.5,2.8,21.7,5.2c-10.3,2.3-20.5,3.7-30.7,5.1
	c-9.9,1.4-20,2.3-29.8,4.4c-9.6,2.1-18.9,5.4-28.4,8.1c28.3-0.5,55-11.6,83.3-10.5c0.1,0.7,0.3,1.5,0.4,2.2c-1.5,0.4-3,0.8-4.7,0.8
	c-0.6-0.9-1-1.2-2.2-1.1c-4.4,1.9-8.2,3.5-12.7,5c-9.5-2.3-17.6-1-25.1,5.5c-3.2,0-5.7,0-8.8,0.2c-3.9,1.2-7,3.2-10.3,3.3
	c-13.1,0.4-26.1,0.2-39.2-0.6c-0.1-1.8-0.1-2.8-0.2-3.8c0.3-0.5,0.7-0.7,1.9-0.5C692.3,284.1,693.3,283.4,694.4,282.6z"/>
<path class="st3" d="M755.8,97c-1.5-2.1-2.8-4.5-4.6-6.3c-8.2-8.3-8.3-20.5,0-29.6c6.8-7.6,21-8.1,29.3-1
	c7.9,6.7,10.5,22.5,2.7,28.8c-5.9,4.7-15,5.3-24.2,7.8C756.9,96.8,756.4,96.9,755.8,97z"/>
<path class="st1" d="M859.3,399.6c-0.3-1.1-0.3-1.6-0.2-2.8c7.1,2.1,14.1,5,21.2,8.7c4.3,6.1,8.6,11.4,12.4,17.1
	c3.3,13.4,7.1,26.3,10.8,39c-4.9-0.6-8.7-1.2-12.6-1.7c-1.2-0.7-2.3-1.4-3.3-3c-0.2-3.9-0.6-7-1-10c-2.7,0.9-5.5,1.7-8.2,2.6
	c-11.9-10.5-16.3-24.3-17.8-39.5C860.4,406.6,860,403.4,859.3,399.6z"/>
<path class="st9" d="M760,321.4c24.5-26,59-39,102.3-17.4c-2.4,2.5-5.3,5.3-7.9,5c-18.7-2.4-37.1,0.4-55.2,4.1
	c-10.8,2.2-21,6.8-32.1,10.4c-1.4,0.1-2.1,0.1-3.4-0.1C762,322.5,761,321.9,760,321.4z"/>
<path class="st6" d="M520.2,375c-7.7,2.9-13.1-2.9-19.6-5.6c-14.2-6.1-28.7-11.5-43.8-17.2c-0.7,0-0.7,0-0.9-0.3
	c-0.7-0.1-1.2,0.1-1.6,0.3c0,0,0,0,0,0c-13.8-6-27.5-11.9-41.3-17.9c-7.1-3.1-9.5-2.6-11.7,1.2c-4.1-3.2-8-6.9-12.5-9.6
	c-7.3-4.5-14.9-8.5-22.6-12.3c-1.1-0.6-3.3,1-5,2.2c0,0.6,0,0.7,0,0.7c-11.5-16.7-30.9-21-47.1-30.4c-4.7-2.7-9.1-5.8-13.6-9.4
	c8.5,1.8,17,4.3,26.1,7.2c0.8,1.9,0.5,4.5,1.3,5c12,6.4,24.2,12.5,36.3,18.7c6.6,3.4,13.2,6.6,19.5,10.4c13.7,8.4,27.8,6.7,42.1,2.3
	c12-3.7,24.1-7.2,36.1-10.8c0.3,1.1,0.6,2.1,0.9,3.2c-18.8,5.4-37.6,10.7-58.4,16.6c17.4,4.3,33.4,8,49.3,12.5
	c4.7,1.3,8.4,5.7,13,7.8c14,6.4,28.3,12.4,44.7,11.4c-3.5,0.9-7,1.9-12.4,3.3C506.8,368.1,513.3,371.3,520.2,375z"/>
<path class="st2" d="M223.9,235.6c-5.1-1.1-9.7-2.2-14-4c-34.5-14.1-69.3-27.8-103.4-42.8c-21.8-9.6-42.8-20.9-63.9-32.1
	c-3.5-1.9-5.6-6.5-8.8-10.3c0.8-6.3,4.4-5.3,8.2-3.2c9.6,5.3,19.2,10.8,29.3,16.6c1.8,2.9,2.5,6.5,4.5,7.6c24,12.3,48,24.7,72.5,36
	c13.9,6.4,28.6,11.2,43.2,16c12.4,4.2,25.1,7.4,38.4,11.1C228.5,232.1,226.5,233.7,223.9,235.6z"/>
<path class="st1" d="M248.6,224.7c4.2-1.3,8.9-3.1,13.6-3c20.3,0.3,40.7,0.7,61,1.8c5.2,0.3,10.3,3.2,16,5.1
	c0.6,0.1,0.6,0.1,0.7,0.7c2.5,3.5,5.2,6.3,7.4,9.3c1.9,2.6,3.3,5.5,5,8.3c-26.5-4.9-53-9.5-79.4-14.7
	C264.7,230.6,256.9,227.5,248.6,224.7z"/>
<path class="st7" d="M967.6,318.1c0.7,0.4,0.8,1,1,2.4c-1.6,2.3-3.3,3.8-6.2,6.3c23.4,0,45.4,0,67.3,0
	c-27.5,12.9-55.2,25.1-87.7,19.2c-2.4-4.6-2.7-8,3.3-7.6c1.3,0.5,2.2,0.5,3.1,0.6c0-0.3,0-0.6,0-0.9c-1.1-0.1-2.3-0.1-3.5-0.8
	c-0.6-2-1.2-3.4-1.8-4.8C951.1,327.7,959.1,323,967.6,318.1z"/>
<path class="st3" d="M787.8,437.6c6,1.1,12.9,0.7,17.6,3.8c8.8,5.6,10.1,22,3.8,29.6c-6.9,8.2-20.3,9.7-28.8,3.2
	c-8.4-6.4-10.2-20.7-3.7-29.6c1.4-1.9,3-3.7,5.6-6C785,438,786.4,437.8,787.8,437.6z"/>
<path class="st9" d="M923.4,114c17.2-21.3,41.2-22.1,65.8-22.2c-9.8,25.3-42.5,42.6-67,30.3c14-6,27.9-11.1,41.8-16.3
	c-0.3-0.8-0.6-1.6-0.8-2.3c-1.8,0.5-3.7,1.1-5.5,1.6C946.2,108.1,934.8,111,923.4,114 M969.2,103.2c0.4-0.3,0.9-0.5,1.3-0.8
	c-0.4-0.2-1-0.8-1.3-0.6C968.8,101.9,968.7,102.6,969.2,103.2z"/>
<path class="st2" d="M473.6,279.5c-1.9,1.8-4.4,4.5-6.7,4.3c-10.4-0.6-20.8-2.1-31.2-3.2c-23.4-2.6-47-4.1-70.1-8.4
	c-12-2.2-24.9-2.9-35.8-6.9c-12.8-4.6-26.7-2-39.7-9.7c2.3-1.8,4.3-3.5,6.7-5.7c27.4,5.2,54.4,11.7,81.6,16.4
	c26.7,4.5,53.7,7.1,80.5,10.6C463.7,277.6,468.4,278.5,473.6,279.5z"/>
<path class="st5" d="M759.5,321.5c1.5,0.4,2.6,1,4.2,2.4c1.4,1.3,2.1,1.9,2.9,2.4c0.4-1,0.7-1.9,1.1-2.9
	c10.5-3.5,20.7-8.2,31.5-10.3c18.1-3.7,36.5-6.5,55.2-4.1c2.5,0.3,5.5-2.5,8.3-4.6c9.6,2.2,19.1,5.2,31.2,9
	c-25.4,11.3-49.4,17.9-75.2,20c-0.3-1.7,0-3.4,0.7-3.6c5.8-1.6,11.9-2.4,17.5-4.6c9.7-3.7,19.2-6.8,29.9-5.7
	c3.6,0.3,7.4-2.7,11.2-4.1c-37-4.1-72.8-3.6-106.6,12.1c0.5,2.5,1.1,5.6,1.8,8.6c-6.8-2-16.3,1.1-18.1-10.7
	C756.3,323.6,757.6,322.6,759.5,321.5z"/>
<path class="st2" d="M773.8,336.1c-1.3-3.1-1.9-6.1-2.4-8.6c33.7-15.7,69.6-16.2,106.6-12.1c-3.7,1.5-7.6,4.5-11.2,4.1
	c-10.7-1-20.2,2-29.9,5.7c-5.6,2.1-11.7,2.9-17.5,4.6c-0.7,0.2-1,1.9-1.5,3.5c-0.8,0.7-1.6,0.8-3.1,0.2c-2.8-1.8-5-3.8-7.1-3.7
	c-6.3,0.3-13,3.2-18.6,1.7c-6.3-1.8-8.3,0.5-10.7,4.7C777.2,336.2,775.8,336.1,773.8,336.1z"/>
<path class="st7" d="M755.4,97.3c0.9-0.4,1.5-0.5,2.9-0.6c-0.9,9-5.3,17.4-0.3,27.4c1.5,2.9-4.2,9.6-6.8,14.4
	c-1.7,3.1-3.8,5.9-6.2,9.2c-2.8-0.1-5-0.6-7.9-1.1c-4.4-3.2-8.7-6.1-11.8-10c-8.4-10.3-2.8-23.4,11.3-26.7c3.7-0.9,7.5-0.9,11.2-1.3
	C750.1,105.1,752.6,101.4,755.4,97.3z"/>
<path class="st1" d="M766.7,221.3c0.5-7.3,3.7-11.9,12-11.2c2.5,0.2,5.3-0.9,7.6-2c20.9-10.7,43-10.5,65.4-7.3
	c0.8,0.1,1.3,1.8,2,3.5C825.7,214.1,797.2,220.7,766.7,221.3z"/>
<path class="st9" d="M1076.9,265.2c-2.9-0.8-5.4-2.6-7.5-2.2c-5.4,1-10.5,3-15.8,4.6c-0.4-0.9-0.9-1.8-1.3-2.7
	c17.9-9.9,35.7-19.8,53.6-29.7c-0.5-1-1-2-1.5-3c-10.4,4.9-20.7,10-31.2,14.7c-2.2,1-6,5.7-6.6-2.2c14.6-13.8,31.8-20.1,52.1-20.2
	C1108.8,242,1097.3,257.6,1076.9,265.2z"/>
<path class="st0" d="M1036.6,269.8c-2.1,1-4.2,1.9-6.2,2.9c-3.4,1.6-6.8,3.3-10.2,5c-0.8-3.9-2.6-8.1-2.1-11.8
	c0.8-5,3.5-9.8,5.2-15.3c-0.2-0.7-0.1-0.7,0.4-0.7c0.2-0.6,0-1.1-0.3-1.7c7.7-11.2,24.6-21.8,39.6-24.1
	c-7.6,14.2-14.8,27.7-21.6,41.7c0.4,0.6,0.3,0.5-0.2,0.2C1039.3,267,1037.9,268.4,1036.6,269.8z"/>
<path class="st5" d="M748,286c6.8-6.5,14.8-7.8,24.8-5c6.2,0.7,11.3,0.9,12.8-5.7c0.6,0.2,1,0.5,1.8,1.9c1.5,2.3,2.5,3.8,3.5,5.2
	c-22.8,6-45.6,12-68.4,17.9c-4.1,1.1-8.4,1.4-13.3,1.6c-0.7-0.9-0.7-1.2-0.7-2.2c1.9-2.8,3.8-4.8,7-8.3c-7.7,0.9-14.1,1.7-20.9,2.5
	c1.3,3.4,2.2,5.8,2.5,8.2c-2,1.2-3.4,2.4-4.7,3.6c-0.8,0.1-1.6,0.3-3.1-0.1c-1.3-0.9-1.8-1.3-2.3-2.4c-4.5-9.2-9.5-1.6-15-1.1
	c-4.4-0.4-8-0.7-11.5-1.1c0-1,0-2,0-2.9c9.5-2.8,19-5.7,28.5-8.5c13.1,0,26.1,0.2,39.2-0.2c3.2-0.1,6.4-2,10.3-2.7
	c3.2,1.5,5.5,2.5,7.9,3.6C747,288.8,747.5,287.4,748,286z"/>
<path class="st9" d="M645.9,346.8c-5.5,11.4-14.9,17.1-27.1,15.6c-19.1-2.4-24.4-25.7-12-36.7c3.5,1,5.8,2.1,8,3.4
	C625.2,335,635.5,340.9,645.9,346.8z"/>
<path class="st9" d="M1271,303.9c-2.7,1.8-5.5,3.5-8,5.4c-5.4,4.1-10.8,8.2-16.9,12.3c8.7-29.7,38.8-55.5,76.4-52.4
	c-0.7,2.8-1.7,5.1-3.4,5.9c-11,5-22.6,8.9-33.2,14.6C1280,292.9,1275.9,299.1,1271,303.9C1271,303.9,1271,303.9,1271,303.9z"/>
<path class="st5" d="M834,166c-2.4,0-4.8,0-7.9,0c0-1.3,0.3-3.3,1.4-3.7c12.3-5.3,10.4-16.4,12-26.8c1.6-10.3,5.8-20.2,10-30.2
	c0.3,2.6-0.3,5.3-1.1,7.9c-2,6.7-8.1,12.7-3.4,21.3c2.1,1.5,4,2.4,5.6,3.8c-3.3,4.3-6.2,8-9.2,11.8c0.4,0.6,0.9,1.1,1.3,1.7
	c5.5-2.9,11-5.9,16.8-8.3c2.5,1.4,4.7,2.2,7,3.6c9.2,6.5,19,7.5,29.4,5.5c4.8-0.9,9.6-1.6,14.4-2.4c10.3-1.6,20.5-3.2,32.5-5
	c-2.7-3.5-3.7-4.2-4.1-5.3c-0.5-1.3-0.6-2.9-0.8-4.3c6.1,1.2,12.2,2.4,20.3,3.9c-3.4,2.2-5.1,3.5-7,4.4
	c-27.4,12.1-55.5,17.4-85.1,9.7c-3.4-0.9-7.2-2.4-10.5-1.7c-3.4,0.7-6.4,3.6-9.4,6.3c-6-1.6-11.1-1.8-12.2,7.2
	C834,166,834,166,834,166 M842,136.6"/>
<path class="st9" d="M1116.4,322.1c0.8-0.3,1.2-0.4,2-0.4c0.5,0,0.4,0.1,0.5,0.5c0.7,0.1,1.2-0.2,1.7-0.4c0,0-0.1,0-0.1,0
	c5.6-1.8,11.1-3.6,17.4-5.4c0.7,0.1,0.6,0,0.6,0c-12.6,13.2-25.2,26.4-38.4,39.7c-3.6,0.7-7.7,0.3-9.4,2.2
	c-7.2,7.7-16.2,8.6-26.6,8.3c-0.8,0-0.8,0-0.8,0c4.3-4.2,8.3-8.8,12.9-12.6C1089.3,343.2,1102.6,332.9,1116.4,322.1z"/>
<path class="st3" d="M667.5,214.3c-2.1-1.8-4-4.7-6.3-5c-10.5-1.4-11.2-8.9-11.7-16.9c-0.6-9,4.6-13.8,12-16.6
	c6.9-2.6,15.6,1.7,19.5,9c3.8,7.4,3.5,14.3-3.2,20.1c-2,1.7-4.2,3.3-7,5.7C669.3,212.3,668.4,213.3,667.5,214.3z"/>
<path class="st3" d="M823.6,460.4c1.1-1.5,2.1-2.3,3.1-3.6c4.7-1.2,9.4-2.2,14.1-2.4c10.5-0.4,19.4,10.8,16.8,20.8
	c-1.9,7.4-5.6,13-14.4,13.1c-10.8,0.1-14.6-2.4-17.7-14c-0.2-3.2-0.9-5.3-1.5-7.4C823.8,465,823.6,463,823.6,460.4z"/>
<path class="st7" d="M1176.1,336c2.1-1.4,4.3-2.9,7.2-5c1.1-1.1,1.4-1.6,1.8-2.1c0,0,0,0,0.6,0c11.3-4.9,14.2-15.3,18.1-25.2
	c1.1,2.1,2,3.9,2.8,5.6c-0.7,18.6-10.5,32.1-24.8,43.9c-14.5,5.3-28.6,9.9-42.7,14.5c-0.3-0.7-0.6-1.4-0.9-2.1
	c8.4-5.8,16.8-11.7,25.3-18.1c0.1-0.6,0.1-0.6,0.6-0.6c1.4-0.6,2.2-1.2,3-1.7c0,0,0,0,0.7-0.1C1170.9,342,1173.5,339,1176.1,336z"/>
<path class="st0" d="M302.1,219.7c-7.4-0.2-14.9-0.5-22.5-1.8c5-4.6,10.3-8.1,16.8-12.4c0-0.7,0.2-3.5,0.3-6.3
	c0.6,0.5,1.2,0.9,1.7,1.4c3.8-3.3,7.7-6.6,11.5-10c-0.5-0.6-1-1.2-1.5-1.8c-5.1,0.8-10.1,1.6-15.2,2.4c0,0,0-0.8,0-1.3
	c19.6-13.8,42.1-19.9,64.7-25.6c8.3-2.1,16.8-3.7,25.8-4.8c0.1,2.6-0.5,4.6-1,6.6c0,0,0,0,0,0c-0.8,0-1.6,0-3.4-0.5
	c-2.7-0.3-4.3-0.3-5.9,0.1c-7.9,1.9-15.7,4-23.6,5.7c-15.4,3.2-30.2,7.3-37.5,23.4C308.6,202.9,305.5,211.3,302.1,219.7z"/>
<path class="st10" d="M980.9,409.5c6.2,3.4,12.3,6.8,18.5,10.2c-0.3,0.7-0.5,1.4-0.8,2.1c-9.2-2.1-18.4-4.2-27.6-6.3
	c-25.8-5.8-51.8-11.2-77.4-17.6c-9.3-2.3-18-6.8-26.5-10.9c9.7,1.1,19.1,2.5,28.3,4.5c11.7,2.5,23.4,5.2,35,8.2
	c15.2,3.9,30.3,8.1,45.5,11.9C977.3,411.9,979.2,410.2,980.9,409.5z"/>
<path class="st8" d="M980.5,409c-1.3,1.2-3.3,2.9-4.7,2.5c-15.2-3.8-30.3-8.1-45.5-11.9c-11.6-2.9-23.3-5.7-35-8.2
	c-9.2-2-18.6-3.4-28.6-4.9c-0.8,0.1-0.7,0.1-0.6-0.6c0.1-2.1,0.1-3.6,0.1-5c6,0.3,12.2-0.2,18,1.1c25.4,5.7,50.7,11.8,76.5,17.4
	C967.4,402.1,973.8,405.3,980.5,409z"/>
<path class="st1" d="M1194.4,357.8c3-0.7,6.5-1.7,9.8-1.1c17,3.2,33.9,6.9,50.9,10c2.6,0.5,5.7-1.5,8.6-3c5.9,1.2,11.8,3.1,17.6,5
	C1250.3,380.6,1221.7,376.1,1194.4,357.8z"/>
<path class="st4" d="M791.7,282.4c-1.8-1.5-2.8-2.9-4.1-4.8c1.3-0.9,2.8-1.3,4.3-1.7c-0.1-0.7-0.3-1.5-0.4-2.2
	c-28.2-1.1-55,10-83.3,10.5c9.4-2.8,18.8-6.1,28.4-8.1c9.8-2.1,19.8-3,29.8-4.4c10.2-1.4,20.4-2.8,31.2-4.7
	c11.5,2.3,22.5,5,33.5,7.8c0,0.6,0,1.3,0,1.9C818.2,278.5,805.4,280.5,791.7,282.4 M799.2,273.1c-0.7,0-1.4,0-2,0c0,0,0,0.8,0,0.8
	C797.9,273.9,798.6,273.9,799.2,273.1z"/>
<path class="st8" d="M844.8,133.8c-4.5-7.9,1.5-13.9,3.6-20.6c0.8-2.6,1.4-5.2,1.6-8.2c7.9-15.3,22.3-22.6,39-31.6
	c-2.8,10.1-4.9,17.5-6.8,25.7c0.2,0.7,0.3,0.7-0.2,0.8c-0.8,0.7-1.1,1.4-1.5,2.5c-1.2,1.3-2.3,2-3.7,2.2c-1.1-3-1.9-5.4-3.1-9
	c-2.6,2.2-4.8,3.5-6.2,5.5C859.7,111.9,852.3,122.8,844.8,133.8 M876.1,91.5"/>
<path class="st9" d="M1266.3,355.9c-9.8-0.7-18.8-1.1-27.9-1.9c-5.3-0.5-10.5-1.6-15.7-3.8c12.5-8.7,26.8-5.7,40.6-8.3
	c11.3,0.4,22.1,1.3,32.9,2.2c0.2,0.8,0.5,1.5,0.7,2.3C1287,349.6,1277,352.8,1266.3,355.9z"/>
<path class="st5" d="M1133.9,299c0.5-3,1.6-6.3,3.2-11.2c-30,13.2-42.9,42.8-68.2,59.5c1.3-2.5,2.2-5.4,4.1-7.4
	c10-10.9,20.7-21.3,30.3-32.6c4-4.7,10.6-8.2,10.1-16.5c11.4-5.1,22.7-9.6,34.1-14c0.7,0.9,1.4,1.7,2.1,2.6
	C1144.6,285.8,1139.5,292.3,1133.9,299 M1141,285.1"/>
<path class="st7" d="M937.4,135.1c0.7,1.9,0.8,3.4,1.3,4.7c0.4,1,1.3,1.8,4.1,5.3c-12,1.8-22.3,3.4-32.5,5
	c-4.8,0.7-9.7,1.4-14.4,2.4c-10.4,2.1-20.2,1.1-28.8-5.8c18.7-3.1,36.9-5.2,55-7.6c3-0.4,5.8-2.4,8.6-4c0-0.4,0-1.3,0-1.3
	C932.8,134,934.9,134.3,937.4,135.1z"/>
<path class="st9" d="M994,317.9c-1.2-0.9-1.6-1.7-1.5-2.9c16.2-5.3,32-9.8,47.4-15.3c3.7-1.3,8.8-5.4,1.9-10.2c0,0-0.1,0,0.4-0.5
	c11.6-4.2,22.7-7.9,33.7-11.7c-0.3-0.8-0.5-1.6-0.8-2.4c-2.8-1.1-5.7-2.3-8.5-3.4c2.4-1.2,4.9-2.4,7.9-3.6c5.3,1.2,10,2.5,16.6,4.2
	C1058.9,290.1,1032.3,315.3,994,317.9z"/>
<path class="st4" d="M1052.1,385.5c-3.7,1.4-8,2.5-13.3,3.7c5.7,11.3,18.1,16.9,29.1,23.2c11.3,6.5,23.8,10.9,35.8,16.3
	c-0.3,0.8-0.7,1.7-1,2.5c-11.5-4.6-23-9.5-34.7-13.9c-4.2-1.6-8.5-6.7-13.9-0.6c-10.7-10.8-20.9-22.1-31.1-33.2
	c-0.4-0.4-1-0.5-2.2-1.5c-0.6-2.1-0.6-3.4-0.6-5.2c0-1.3,0-2,0-2.8c0.8-0.1,1.6-0.2,3-0.2c0.6,0.9,0.6,1.6,0.7,3.5
	c2.9,2,5.6,2.9,8.4,3.7C1038.8,382.4,1045.2,383.8,1052.1,385.5 M1055.1,410.6"/>
<path class="st8" d="M1020.2,377.4c0,1.3,0,2.6,0,4.5c-13.1-0.5-26.2-1.7-39.4-2.7c-16.9-1.3-33.7-2.5-51.3-4
	c-1.3-1.7-1.8-3.2-2.4-5.1c11.3,0,22.8,0.2,34.2,0.8c12.1,0.7,24.1,1.7,37,3.5C1006.2,376,1013.2,376.7,1020.2,377.4z"/>
<path class="st1" d="M612,443.6c0.5,0.2,1,0.5,1.5,2c2,3,3.8,5,5.6,7c0,0,0,0,0.1,0.6c3,4.9,6,9.1,8.9,13.4
	c-11-4.7-22.1-9.5-33.7-15.3c-1.8-1.4-3-1.8-4.1-2.2c0,0,0.1,0.1,0.1-0.6c-2.4-8.1-4.7-15.4-6.3-22.8c2,0,3.3,0,4.7,0
	c0,0,0,0,0.1,0.7c2.4,2,4.8,3.4,7.1,4.7c0,0,0,0,0.2,0.4c0.5,0.9,1,1.2,1.6,1.4c0,0,0,0,0,0.5c0.6,1.4,1.2,2.2,1.8,3.1
	c0,0,0,0,0.2,0.5c1.9,1.4,3.5,2.2,5.1,3.1c0,0,0,0,0.3,0.5C607.6,441.9,609.8,442.7,612,443.6z"/>
<path class="st6" d="M930.7,135.4c-2.9,1.2-5.6,3.2-8.6,3.6c-18.1,2.4-36.3,4.5-55.1,7c-2.9-0.5-5.1-1.3-7.2-3.2
	c2.2-5.6,4.4-10,6.9-15.1c3.6-7.9,7-15.2,10.4-22.6c0,0,0,0,0,0c1.1-0.7,2.3-1.5,4-3c0.9-1.3,1.2-1.9,1.5-2.4c0,0-0.1,0-0.1,0
	c3.7-1.7,7.4-3.5,11.7-5.4c-0.8,1.8-1.8,4.3-3.6,5.8c-9.7,8-17.2,17.5-20.9,29.8c-1.4,4.5-0.4,6.1,5.2,6c2,0.8,3.1,1.1,4.1,1.5
	c4.9,0,9.8,0,15.9-0.1c2.1,0,2.9,0,4.4,0c5-0.6,9.3-1.2,14.2-1.8c3.8-1.1,6.9-2.1,10-3.2c0.8,0,1.6,0,3.1,0.7
	C928.4,134.3,929.6,134.8,930.7,135.4z"/>
<path class="st6" d="M893.1,422.1c-4.3-5.3-8.6-10.6-12.5-16.2c1-0.2,1.8-0.3,2.1,0.1c9,10.7,20.5,14.8,34.8,13.9
	c-3.3,1.5-7.3,2.6-14,4.5c12.6,5.9,23.4,11,34.2,16.1c-0.2,0.6-0.5,1.2-0.7,1.7c-4.7-0.6-9.4-1.2-14.1-1.9c-0.4,0.9-0.8,1.8-1.3,2.7
	c2.2,3,4.4,5.9,6.4,9c0.6,0.9,0.3,2.5-0.2,3.8c-2.4-0.5-4.4-1.1-7-1.8c-2.3-1.8-4.7-3.3-5.2-5.3c-2.3-9.3-12.3-20.8-20.8-23.8
	C894.3,423.8,893.7,422.9,893.1,422.1 M918.7,435.4c-0.5,0.5-1,0.9-1.5,1.4c0.2,0.2,0.6,0.6,0.6,0.6
	C918.3,437,918.8,436.5,918.7,435.4z"/>
<path class="st3" d="M734.2,383.3c1.8,1.2,3,2.1,4.1,3c6.1,4.9,8.4,11,4,18c-3.7,5.9-9.7,6.5-15.8,4.2c-6.6-2.5-10.3-7.4-8.5-14.7
	C720,386.1,724.6,381.2,734.2,383.3z"/>
<path class="st4" d="M892.7,422.5c1,0.4,1.6,1.3,2.5,3.2c3.4,9,6.9,16.7,9.4,24.8c3,10,13.9,19.8,25.1,21.5c4.3,3.5,8.7,7,13,10.5
	c-18.8-3.4-35.1-11.8-51.2-22.1c3.5,0,7.3,0.5,12.2,1.2C899.8,448.8,896,435.8,892.7,422.5z"/>
<path class="st9" d="M929.3,471.3c-10.9-1.1-21.8-10.9-24.8-20.9c-2.5-8.1-6-15.8-9.3-24.2c8.2,1.9,18.1,13.4,20.4,22.7
	c0.5,2,2.9,3.5,4.8,5.8C923.5,460.5,926.3,465.6,929.3,471.3z"/>
<path class="st4" d="M689,288.8c-9.5,3.6-19,6.4-28.5,9.2c0,1,0,2,0,2.9c3.6,0.4,7.2,0.7,12.3,1.1c5.8,0.6,10.1,1.2,14.3,1.7
	c0.5,0.4,1,0.8,1.7,1.6c-12.1,0.1-24.4-0.2-37.9-1c-3.1,0.7-4.9,1.8-6.7,3c0,0,0,0,0,0c-5.9-2.6-11.8-5.2-17.8-8.4
	c2.4-2.1,4.9-3.5,8-5c1.4,1.3,2.1,2.8,4.1,4.3c1.5-0.6,1.8-1.1,2.2-1.6c0,0-0.1,0-0.1,0c15.6-3.8,31.2-7.6,47.5-11.5
	C688.8,286,688.9,287,689,288.8 M655.7,299.4"/>
<path class="st3" d="M649.5,345.4c1.4-1,3-1.7,4.2-2.9c7.8-8.5,13.2-8.7,21.9,0.2c-1.4,0.8-2.5,0.6-3.1,1.1
	c-1.7,1.4-3.3,2.9-4.5,4.7c-0.2,0.4,2.1,3.2,2.4,3.1c1.8-0.9,3.4-2.3,5.1-3.5c0.7-0.5,1.6-0.6,2.4-0.9c-1.4,7.5-5.6,13.1-13.1,13.4
	c-6.9,0.3-12.1-4.1-14.6-12.1c-0.5-0.8-0.6-1.7-0.6-2C649.6,346,649.5,345.4,649.5,345.4z"/>
<path class="st3" d="M649.3,344.9c0.2,0.5,0.3,1.2-0.2,1.5c-0.4,0.4-1.3,0.4-1.3,0.4c-0.3,0-0.6,0-1.4,0
	c-10.8-5.9-21.2-11.8-31.5-17.7c-2.2-1.3-4.5-2.5-7.4-3.7c-7.2-4.2-13.8-8.4-20.5-13.1c-0.1-1-0.1-1.4-0.1-2.4
	c19.3,9.5,38.5,19.7,58.4,30C646.9,341.4,648,342.9,649.3,344.9z"/>
<path class="st8" d="M601.3,115.3c3.6-1.5,7-2.4,10.5-3.2c0.8,1.1,1.6,2.3,2.4,3.4c-9.4,12.6-18.8,25.3-28.2,37.9
	c-0.6-0.5-1.3-1-1.9-1.5c1.6-7.6,3.1-15.3,4.8-23.7C593.1,123.6,597.2,119.8,601.3,115.3 M593.3,129.3"/>
<path class="st9" d="M599.4,144.5c5.6-7.9,11.8-14.5,22.8-12.7c1.3,0.2,2.8-1.5,4.7-2.8c-1.9,8.2-4.2,16.9-7.7,25.8
	c-3.5-2.9-5.8-6-9.1-10.3C607.7,144.5,603.5,144.5,599.4,144.5z"/>
<path class="st9" d="M611,167.3c-11.4-0.3-22.4-0.9-34.9-1.6c5.7-4.1,11.2-8.1,17.4-11.6c4.9,0.9,9,1.2,15,1.7
	c0.4,2,1.2,5.8,2.1,9.6C610.8,165.9,611.1,166.5,611,167.3z"/>
<path class="st6" d="M1271.5,303.6c4.3-4.6,8.5-10.8,14.3-14c10.6-5.8,22.1-9.7,33.2-14.6c1.7-0.8,2.7-3.1,4-5.6
	c6.3,0,12.6,0.7,18.5,1.9c-11.7,4.2-23.6,7-34.4,12C1295,289,1283.7,296.7,1271.5,303.6z"/>
<path class="st3" d="M1206.9,308.7c-1.2-1.1-2.1-2.9-3.2-5c-3.9,9.9-6.8,20.3-18.1,25.2c3.6-6.6,8.4-13,11.8-20
	c2-4.1,1.5-9.4,2.1-14.8c2.9-2.2,5.9-3.7,10.7-6.2C1209.1,295.8,1208.2,301.9,1206.9,308.7z"/>
<path class="st9" d="M667.5,215c0.9-1.7,1.8-2.7,3-3.9c2.6,4.6,5.5,9.4,6.8,14.5c2.1,8.5,3.1,17.3,4.7,26.6c-0.7,1-1.4,1.2-2.7,1.6
	C674.9,241.2,671.2,228.4,667.5,215z"/>
<path class="st1" d="M611.3,165.4c-1.5-3.8-2.3-7.6-2.7-9.6c-6-0.5-10.1-0.8-14.4-1.7c-0.1-0.6-0.1-0.6,0.5-0.7
	c1.4-1.2,2.2-2.4,3-3.6c0.3-1.5,0.6-3.1,1.3-4.9c4.6-0.4,8.7-0.4,11.2-0.4c3.2,4.3,5.6,7.5,8.6,10.7
	C616.9,158.7,614.4,162.1,611.3,165.4z"/>
<path class="st9" d="M787.7,437c-1.3,0.8-2.7,1-4.8,1.2c-4.7-13.9-8.8-27.8-13.1-42.4c3.2,0.2,6.6,1.1,10.2,2.5
	c-0.5,2.7-2.2,5.2-1.7,7.1C781,415.8,784.4,426,787.7,437z"/>
<path class="st9" d="M739.4,239.7c-12.2,8.8-24.5,17.6-37.5,26c-1.3-1.3-1.8-2.1-2.2-3c12.1-8.3,24.3-16.6,37.3-24.5
	C738.3,238.9,738.9,239.3,739.4,239.7z"/>
<path class="st11" d="M282.2,266.1c-11-4.7-21.9-10.1-32.8-15.6c0.3-0.8,0.6-1.6,1-2.4c5.5,1.4,10.9,2.9,17.1,4.5
	c4.6,1.6,8.4,3,12.7,4.6C281.2,260.2,281.7,262.8,282.2,266.1z"/>
<path class="st9" d="M708.3,340.3c6.9,12.8,13.8,25.6,20.8,38.4c-1.1,0.6-2.2,1.2-3.2,1.8c-7.5-13-15-26-22.4-40.2
	C705.1,339.7,706.7,340,708.3,340.3z"/>
<path class="st9" d="M827.4,434.2c-5.8-1.1-11.1-2.6-17.3-4.4c4.1-4.6,6.7-7.6,9.5-11.1C828.5,418.5,831.9,425,827.4,434.2z"/>
<path class="st5" d="M778.9,336.7c2-4.7,4-7,10.2-5.2c5.6,1.6,12.3-1.4,18.6-1.7c2.1-0.1,4.3,1.9,6.5,3.6c-8.2,2-16.5,3.3-24.7,5.4
	C786.2,338.7,782.8,337.9,778.9,336.7z"/>
<path class="st12" d="M922.9,114.2c11.9-3.2,23.3-6.1,34.7-9.1c1.9-0.5,3.7-1.1,5.5-1.6c0.3,0.8,0.6,1.6,0.8,2.3
	c-13.9,5.1-27.8,10.3-42.3,15.8c-2.3,0.3-4.1,0.1-6.2-0.6c0.1-1.3,0.6-2,1.5-3.1c0.7-0.9,1-1.5,1.4-2.1c0,0-0.1,0-0.1,0
	C919.6,115.4,921,114.9,922.9,114.2z"/>
<path class="st9" d="M699,262.8c1.1,0.8,1.6,1.6,2.2,3c-8.9,4-17.9,7.6-27.7,11.2c-0.8-1.4-1.4-3.7-0.8-4.1
	c3.6-2.3,7.5-4.1,11.9-6.2C689.6,265.2,694,264.1,699,262.8z"/>
<path class="st3" d="M352.8,247.2c-2.3-3.1-3.7-6-5.6-8.6c-2.2-3-4.9-5.8-7.4-9.3c3,1.5,6,3.9,9.3,5.7c8.6,4.7,17.4,9.1,26.2,14.2
	C368.1,249,360.8,248.3,352.8,247.2z"/>
<path class="st3" d="M379.9,250.2c0.4-1.6,1.7-4.3,2.8-4.3c12,0.6,23.9,1.6,35.9,2.6c1,0.1,2,1,3.2,2.1
	C408.2,250.9,394.4,250.6,379.9,250.2z"/>
<path class="st8" d="M597,103.6c0.8,3.5,0.7,6.8,0.8,10.7c-5.4,0.9-13.2,5.5-12.7-5.7C585.4,100.1,591.9,104,597,103.6z"/>
<path class="st6" d="M628.8,466.7c-3.6-4.5-6.6-8.7-9.6-13.6c7.1,4.3,14.2,9.1,21.4,14.6C636.9,467.9,633.1,467.4,628.8,466.7z"/>
<path class="st12" d="M942.5,332.5c1.3,1.4,1.9,2.8,2.5,4.8c0,0.6,0,0.6,0,0.6c-5.8,0.1-5.4,3.4-3.8,7.8c-4.1-0.1-8.3-0.6-13.3-1.1
	c2.6-3.6,6-7.2,9.6-11.3C939.2,332.7,940.5,332.7,942.5,332.5z"/>
<path class="st13" d="M898.4,137.3c-0.8,0-1.6,0-2.9,0c-4.8-5.9,1.6-5.1,4.4-7.1c7.9,0.3,15.2,0.7,23.1,1.7c-2.6,1.6-5.7,2.6-10,3.2
	C907.3,135.4,902.9,136.3,898.4,137.3z"/>
<path class="st3" d="M583.3,425.6c2.3,7.4,4.6,14.8,7,22.9c-2.5-0.4-5.1-1.6-8.2-3.1c-0.9-5.1-1.3-9.9-1.6-14.7
	c-0.1-2.2-0.1-4.5,0.6-6.4C582.2,425.1,582.7,425.5,583.3,425.6C583.3,425.7,583.3,425.6,583.3,425.6z"/>
<path class="st9" d="M740,239.5c-1.1-0.2-1.6-0.6-2.4-1.5c5.1-5.8,10.5-11.2,16.4-16.8c1.1,0.5,1.6,1.2,2.7,2.2
	C751.7,229,746.1,234.2,740,239.5z"/>
<path class="st9" d="M708.9,340.6c-2.2-0.6-3.8-0.9-5.6-0.8c-3.7-2.2-7.1-4.8-10.8-8c1.2-1.3,2.7-2.1,5.1-2.4
	c6.8,3.7,12.5,6.9,18.2,10.1c-0.9,0.6-1.8,1.3-3.3,2C711.2,341.4,710.3,341.2,708.9,340.6z"/>
<path class="st9" d="M1258.2,360.8c-9.2,0.7-18.6,0.7-27.9,0.7c0-1.3,0-2.6,0-4c8.7,0,17.4,0,26.9,0
	C1258,358.3,1258.1,359.2,1258.2,360.8z"/>
<path class="st10" d="M865.8,380.9c0.4,1.4,0.4,2.9,0.3,5c-4.4-1.6-8.8-4-13.7-6.6c-0.5-1.9-0.4-3.5-0.4-5c2.9,1.2,5.7,2.4,9,4.7
	c1.4,1.4,2.5,1.7,3.5,2C864.6,380.9,865.4,380.9,865.8,380.9z"/>
<path class="st3" d="M383.4,166c-0.1-1.9,0.5-3.9,1.1-6.5c4.9-1.9,9.8-3.1,15.4-4.4C395.1,158.7,389.6,162.3,383.4,166z"/>
<path class="st3" d="M609.1,413.4c-7.5,0.9-15,1.3-22.6,1.7c-0.1-0.8-0.2-1.6-0.3-2.4c6.2-1.1,12.4-2.2,19.2-3.6
	C607,410.1,608,411.5,609.1,413.4z"/>
<path class="st9" d="M626.6,124c-2.7,3.7-4.4,8.9-10.7,4.5c2-4,4-8.1,6.6-12.4C624.3,118.3,625.5,120.8,626.6,124z"/>
<path class="st2" d="M287.3,246.4c0.5,1.2,0.5,1.9,0.5,3.2c0,0.6,0,0.6,0,0.6c-3.8,0-7.6,0.3-11.3-0.2c-4.2-0.6-5.9-2.7-1.5-6.6
	C279.2,243.9,283,244.9,287.3,246.4z"/>
<path class="st2" d="M502,282.6c-5.3,6.1-12.5,5.8-18.9-1.3C489.1,281.3,495.2,281.9,502,282.6z"/>
<path class="st6" d="M483,399.5c4.1,6.2,8.3,13,12.4,20.6c-1.3,0.6-2.6,0.6-4.6,0.4C487.8,413.5,485.4,406.8,483,399.5z"/>
<path class="st3" d="M508.7,237.7c-2.2-2.6-3.8-5.3-6.2-9.3c5.5,1.5,10.7,2.9,16.1,5C515.7,235.2,512.5,236.4,508.7,237.7z"/>
<path class="st6" d="M1020.2,376.8c-7-0.1-14-0.8-21.2-2.1c6.4-0.7,13-0.8,20.4-0.8C1020.2,374.8,1020.2,375.5,1020.2,376.8z"/>
<path class="st4" d="M878.8,449.8c2.4-1.4,5.2-2.2,7.9-3.1c0.4,3.1,0.8,6.1,0.7,9.5C884.4,454.5,881.7,452.4,878.8,449.8z"/>
<path class="st9" d="M677.9,346.6c-0.9,0.9-1.8,1-2.5,1.5c-1.7,1.1-3.3,2.6-5.1,3.5c-0.3,0.1-2.6-2.7-2.4-3.1
	c1.2-1.8,2.8-3.3,4.5-4.7c0.6-0.5,1.7-0.3,3.3-0.5C676.9,344.2,677.5,345.1,677.9,346.6z"/>
<path class="st3" d="M426.5,251.2c2.8-4.1,6.6-6.8,11.6-1.5C434.6,250.7,430.9,251,426.5,251.2z"/>
<path class="st9" d="M916.5,118.3c-0.5,0.7-1,1.4-1.7,2.6c-2.7,1.6-5.3,2.8-8.5,4c-0.9-4.7,0.9-7.5,7.4-7.1
	C915.5,118.1,916,118.2,916.5,118.3z"/>
<path class="st6" d="M1121.3,316.7c2-4.1,4.6-8.2,7.8-12.5C1127.1,308.2,1124.6,312.4,1121.3,316.7z"/>
<path class="st4" d="M693.3,305.8c0.6-1.3,2-2.5,4.7-3.7c4.4-0.6,7.6-1.2,10.7-1.8c0,0.3,0,0.7,0.1,1.5
	C703.8,303.5,698.9,304.7,693.3,305.8z"/>
<path class="st4" d="M248,233.5c-2.5-0.3-5.4-1-8.5-2.3C242.1,231.5,244.9,232.3,248,233.5z"/>
<path class="st8" d="M1032.4,380.4c-2.8-0.2-5.5-1.1-8.4-2.5c2.4-0.6,5-0.6,8.3-0.5C1032.8,378.2,1032.6,379,1032.4,380.4z"/>
<path class="st14" d="M823.8,467.5c0.8,1.5,1.5,3.6,1.7,6.2C824.5,472.1,824,470.1,823.8,467.5z"/>
<path class="st5" d="M644.9,307.4c1.1-1.1,2.9-2.3,5.2-3.2c0.6,0.7,0.7,1.2,0.9,2.5C649.3,307.5,647.4,307.5,644.9,307.4z"/>
<path class="st9" d="M1239.8,327.5c-0.3,1-1.4,2-2.5,3c-0.3-1-0.5-2-0.3-3.1C1238,327.4,1238.5,327.4,1239.8,327.5z"/>
<path class="st10" d="M843.8,377.1c-0.3-1,0-1.9,0.8-3c1.4,0.6,2.3,1.4,3.5,2.6C847,377.1,845.7,377.1,843.8,377.1z"/>
<path class="st13" d="M930.7,135c-1.2-0.1-2.3-0.7-3.6-1.8c0.8-0.4,1.9-0.3,3.2,0.1C930.7,133.6,930.7,134.5,930.7,135z"/>
<path class="st5" d="M693.8,282.6c-0.5,0.8-1.5,1.5-2.9,1.9C691.6,283.6,692.5,283.1,693.8,282.6z"/>
<path class="st7" d="M801.2,179.7c-0.4,0.3-1.5,0.1-2.5-0.3C799.4,179.1,799.9,179.2,801.2,179.7z"/>
<path class="st8" d="M1032.5,373.4c-0.7,0.6-1.7,0.9-3,0.8C1030.2,373.6,1031.2,373.3,1032.5,373.4z"/>
<path class="st6" d="M1118.8,321.6c0.3-1.6,0.6-3,1.4-4.8c0.3,1,0.1,2.4,0.1,4.3c0.2,0.7,0.2,0.7-0.2,0.4c-0.8-0.1-1.1,0-1.4,0.2
	C1118.7,321.7,1118.8,321.6,1118.8,321.6z"/>
<path class="st3" d="M590.6,449.6c0.8-0.2,2,0.2,3.6,1.1C593.4,450.9,592.1,450.6,590.6,449.6z"/>
<path class="st9" d="M1138.5,316.5c0.2-0.2,0.4-0.4,0.6-0.7c-0.1,0.1-0.1,0.3-0.4,0.5C1138.4,316.4,1138.4,316.4,1138.5,316.5z"/>
<path class="st5" d="M1130.1,304c-0.1-0.4,0.3-0.9,1.2-1.6C1131.3,302.7,1131,303.3,1130.1,304z"/>
<path class="st6" d="M1023.2,248.6c0.4,0.1,0.7,0.7,0.5,1.3C1023.2,249.6,1023.1,249.3,1023.2,248.6z"/>
<path class="st15" d="M648,347.2c-0.2-0.4,0.7-0.4,1.1-0.5c0.4,0,0.5,0.8,0.6,1.2C649.1,348.3,648.6,348.1,648,347.2z"/>
<path class="st3" d="M475.9,167.8c-1.8,3.3-3.3,6-4.8,8.7c-0.9-0.6-1.9-1.1-2.8-1.6c4.9-9,9.8-18.1,14.7-27.1
	c1.1,0.6,2.2,1.2,3.2,1.7C482.9,155.3,479.5,161.3,475.9,167.8z"/>
<path class="st3" d="M524.2,173.2c0.9-2.8,1.9-5.6,2.8-8.5c0.9,0.4,1.8,0.9,2.7,1.3c-1.4,2.3-2.9,4.6-4.9,7
	C524.2,173.1,524.2,173.2,524.2,173.2z"/>
<path class="st3" d="M530.4,159.6c0.9-0.6,1.6-0.7,2.3-0.8c-0.3,0.9-0.6,1.9-0.9,2.8C531.2,161.1,530.7,160.6,530.4,159.6z"/>
<path class="st6" d="M368.4,345c-0.8-4.4-1.5-8.1-2.3-11.8c0.5-0.1,1.1-0.3,1.6-0.4c4.3,14.9,8.7,29.9,13,44.8
	c-0.9,0.3-1.9,0.6-2.8,0.9C374.8,367.6,371.6,356.7,368.4,345z"/>
<path class="st6" d="M413.2,361.2c4.8,7.9,9.5,15.8,14.3,23.6c-1.2,0.6-2.3,1.2-3.5,1.8c-3.6-8-7.2-16.1-10.8-24.8
	C413.2,361.2,413.2,361.2,413.2,361.2z"/>
<path class="st6" d="M475.8,386.9c2.4,3.1,4.8,6.8,7.2,11.2C480.6,395.1,478.2,391.3,475.8,386.9z"/>
<path class="st6" d="M361.2,316.4c2,2.9,4,5.7,6,8.6c-1,0.5-2.1,1.1-3.1,1.6c-1-2.9-1.9-5.9-2.9-9.5
	C361.2,316.4,361.2,316.4,361.2,316.4z"/>
<path class="st6" d="M406.3,344c1.5,1.6,2.4,3.2,3.3,4.9c-0.9,0.4-1.8,0.7-2.7,1.1C406.5,347.9,406.1,345.9,406.3,344z"/>
<path class="st6" d="M470.5,377.9c1.7,1.9,3.5,4.5,5.3,7.7C474.1,383.7,472.3,381.1,470.5,377.9z"/>
<path class="st6" d="M459.7,360c1.8,1.3,3.5,3.3,5.3,5.9C463.3,364.6,461.5,362.6,459.7,360z"/>
<path class="st6" d="M456.1,352.2c1.2,2,2.3,4,3.5,6.6c-1.7-1.4-3.5-3.4-5.3-6c-0.1-0.6-0.1-0.6,0.4-0.6
	C455.5,352.2,455.8,352.2,456.1,352.2C456.1,352.2,456.1,352.2,456.1,352.2z"/>
<path class="st6" d="M413.1,361.2c-1.3-2.2-2.6-4.5-3.9-6.8c0.8-0.3,1.7-0.7,2.5-1c0.5,2.1,1,4.3,1.4,7.1
	C413.2,361.2,413.2,361.2,413.1,361.2z"/>
<path class="st6" d="M465.1,367.2c1.2,1.4,2.4,3.3,3.6,5.9C467.5,371.8,466.3,369.8,465.1,367.2z"/>
<path class="st6" d="M468.7,374.2c0.5,0.3,1.1,1.2,1.7,2.5C469.9,376.5,469.3,375.6,468.7,374.2z"/>
<path class="st6" d="M403.2,340.7"/>
<path class="st6" d="M577.9,416.8c-10.7-8-21.4-15.9-32.1-24.5c7.5,4.2,15.1,9.1,22.7,14c2.7,1.7,5.5,3.4,8.9,5.8
	C577.9,414,577.9,415.4,577.9,416.8C577.9,416.7,577.9,416.8,577.9,416.8z"/>
<path class="st6" d="M545.5,391.2c-8.1-4.5-16.5-9.5-24.8-15.1c8.8,3.4,17.6,7.4,26.1,11.2C546.5,388.1,545.9,389.4,545.5,391.2z"/>
<path class="st6" d="M475.9,340.8c-4.7,0.9-8.9,1.5-13.1,2.1c0-1.1-0.1-2.3-0.1-3.4C467.3,339.8,471.9,340.1,475.9,340.8z"/>
<path class="st6" d="M612.4,443.1c-2.6-0.4-4.8-1.2-7.4-2.6c4.1-1,8.4-1.5,12.8-2c0.1,0.6,0.3,1.1,0.4,1.7
	C616.5,441,614.6,441.8,612.4,443.1z"/>
<path class="st6" d="M588.6,425c-1.3,0.6-2.6,0.6-4.6,0.6c-0.7,0-0.7,0-0.7-0.4c0-0.5,0-1.3,0-1.3c-1.6-2.1-3.2-4.1-5.1-6.7
	c-0.3-0.5-0.3-0.5,0.2-0.5c0.8,0,1.1,0,1.4,0C582.7,419.2,585.7,421.8,588.6,425z"/>
<path class="st6" d="M619.1,451.9c-1.8-1.4-3.6-3.3-5.4-6C615.5,447.3,617.3,449.3,619.1,451.9z"/>
<path class="st6" d="M595.6,430.5c-2.1-0.8-4.4-2.2-6.8-4.2C590.9,427.1,593.1,428.5,595.6,430.5z"/>
<path class="st6" d="M483.9,337.9c1-0.7,2-0.9,3-1c0,0.7,0,1.4,0,2.1C485.9,338.8,484.9,338.6,483.9,337.9z"/>
<path class="st3" d="M580,416.1c-0.5,0.5-0.8,0.5-1.6,0.5c-0.5-1.3-0.5-2.7-0.5-4.6C578.7,412.8,579.4,414.2,580,416.1z"/>
<path class="st6" d="M604.7,439.4c-1.5-0.2-3.2-1.1-5-2.5C601.1,437.2,602.9,438,604.7,439.4z"/>
<path class="st6" d="M599.4,435.9c-0.6-0.3-1.1-1.1-1.7-2.5C598.2,433.7,598.8,434.5,599.4,435.9z"/>
<path class="st6" d="M597.4,432.4c-0.4,0.2-0.9-0.1-1.4-1C596.4,431.2,596.9,431.5,597.4,432.4z"/>
<path class="st16" d="M565.4,199.3c-15.1-0.8-30.2-2.2-46.6-3.8c16.6-8.2,31.5-16.8,47.5-22.8c7.1-2.7,16.3,0.1,25.2,0.4
	c1.3,8.3-2.6,12.9-10.6,14.6c-2,0.4-4,1.3-5.6,2.5c-4.5,3.7-7,1.3-10.2-2.1c-1.9-2-5.1-2.7-7.7-4c-0.9,1.9-3,4.4-2.4,5.7
	c0.9,2,3.6,3.3,5.6,4.8C562.2,195.9,563.7,197.3,565.4,199.3z"/>
<path class="st3" d="M413.9,223.2c0.7-0.4,1.4-0.4,2-0.4c0,0,0,0.5,0,0.8C415.3,223.7,414.6,223.6,413.9,223.2z"/>
<path class="st2" d="M302.9,219.7c2.6-8.4,5.7-16.8,9.4-25c7.2-16,22.1-20.1,37.5-23.4c7.9-1.7,15.7-3.8,23.6-5.7
	c1.6-0.4,3.3-0.4,5.3-0.1c-4.5,5.2-9.5,9.9-15.1,14.1c-1.6-1.8-3.1-4.3-3.3-4.2c-6.4,3.4-12.7,7-19,10.5c0.4,1.1,0.8,2.2,1.2,3.3
	c5.1,0,10.1,0,15.2,0c-5.2,7.8-9.7,16.3-16,23.2c-3.1,3.4-9.3,4.4-14.3,5.2C319.6,218.9,311.6,219.1,302.9,219.7z"/>
<path class="st2" d="M293.1,191.7c5.2-1.4,10.2-2.2,15.3-3c0.5,0.6,1,1.2,1.5,1.8c-3.8,3.3-7.7,6.6-11.5,10
	c-0.6-0.5-1.2-0.9-1.7-1.4c-0.1,2.8-0.3,5.5-0.3,6.3c-6.5,4.3-11.7,7.8-17.3,11.9c-7.8,0.6-15.3,0.6-22.8,0.6
	c-0.2-0.8-0.4-1.7-0.6-2.5C268.1,207.7,280.6,200,293.1,191.7z"/>
<path class="st0" d="M358.2,189c-5.6,0.3-10.6,0.3-15.7,0.3c-0.4-1.1-0.8-2.2-1.2-3.3c6.3-3.6,12.6-7.2,19-10.5
	c0.2-0.1,1.8,2.4,2.7,4.3c0,0.7,0,0.6-0.5,0.7c-0.8,1.2-1,2.4-1.3,3.5C360.4,185.5,359.6,187.1,358.2,189z"/>
<path class="st2" d="M361.7,183.6c-0.2-0.8,0.1-2,0.8-3.2C362.7,181.3,362.4,182.3,361.7,183.6z"/>
<path class="st9" d="M597,149.9c-0.2,1.1-1.1,2.2-2.4,3.5C594.8,152.3,595.6,151.1,597,149.9z"/>
<path class="st1" d="M582.9,423.9c0.5,0,0.5,0.9,0.5,1.3c-0.6,0.3-1.1-0.1-1.6-0.9C581.8,423.9,582.1,423.9,582.9,423.9z"/>
<path class="st8" d="M864.2,380.4c-0.7,0.1-1.7-0.2-3.1-1C861.9,379.3,862.9,379.7,864.2,380.4z"/>
<path class="st2" d="M241,244.4c-0.4,0.2-0.8-0.2-1.4-1C240,243.2,240.5,243.5,241,244.4z"/>
<path class="st2" d="M287.8,250.2c0.1,0.2,0.1,0.3,0.1,0.3C287.8,250.2,287.8,250.2,287.8,250.2z"/>
<path class="st9" d="M1230.2,337.2c-0.4,0-0.6-0.2-0.9-0.5C1229.7,336.9,1230,336.9,1230.2,337.2z"/>
<path class="st9" d="M1232.9,333.6c0.2-0.3,0.6-0.3,1-0.4C1233.6,333.4,1233.3,333.6,1232.9,333.6z"/>
<path class="st9" d="M1063.2,366.6c-0.2,0.2-0.5,0.4-0.7,0.6c0.1-0.1,0.2-0.3,0.5-0.5C1063.2,366.6,1063.2,366.6,1063.2,366.6z"/>
<path class="st4" d="M1113.4,436.4c-2.2-1.1-4.4-2.2-6.6-3.3c0.4-0.6,0.8-1.3,1.2-1.9c1.8,1.3,3.5,2.7,5.4,4.6
	C1113.4,436.4,1113.4,436.4,1113.4,436.4z"/>
<path class="st4" d="M1113.4,436.4c0.1,0.2,0.1,0.3,0.1,0.3C1113.4,436.4,1113.4,436.4,1113.4,436.4z"/>
<path class="st3" d="M1175.5,336.3c-2,2.7-4.6,5.6-7.8,8.7C1169.7,342.2,1172.4,339.4,1175.5,336.3z"/>
<path class="st3" d="M1166.6,345.1c-0.3,0.5-1.1,1.1-2.5,1.7C1164.3,346.3,1165.2,345.7,1166.6,345.1z"/>
<path class="st3" d="M1184.6,329.2c0.1,0.3-0.3,0.8-1,1.5C1183.5,330.4,1183.9,329.9,1184.6,329.2z"/>
<path class="st5" d="M834,166c0.1,0.2,0.1,0.3,0.1,0.3C834,166,834,166,834,166z"/>
<path class="st7" d="M1065.9,271.6c3.6,1.1,6.5,2.2,9.3,3.4c0.3,0.8,0.5,1.6,0.8,2.4c-11.1,3.7-22.2,7.4-33.7,11.6
	c-11.4,2.2-22.3,3.9-33.3,5.6C1025.9,282,1043.1,270.8,1065.9,271.6z"/>
<path class="st7" d="M1041.4,290c7.3,4.3,2.1,8.4-1.5,9.7c-15.4,5.5-31.2,10-47.6,14.9c-2.8-0.9-5-1.9-9.7-4
	c11.5-4.5,20.8-8.7,30.5-12C1022.3,295.5,1031.7,293.2,1041.4,290z"/>
<path class="st7" d="M1004.8,296c-1.3,1.5-3,2.5-4.7,3.6c-0.3-0.6-0.5-1.2-0.8-1.8C1001,297.1,1002.7,296.3,1004.8,296z"/>
<path class="st17" d="M1037.1,269.6c0.8-1.3,2.2-2.6,4.1-3.7C1040.4,267.4,1039,268.4,1037.1,269.6z"/>
<path class="st0" d="M1015,279.6c0.4,0.7,0.4,1.4,0.4,2.1c0,0-0.5,0-0.8,0C1014.5,280.9,1014.5,280.2,1015,279.6z"/>
<path class="st9" d="M1064.5,251.9"/>
<path class="st17" d="M754.5,365.8c-0.2,0.1-0.2-0.3-0.2-0.3S754.6,365.7,754.5,365.8z"/>
<path class="st6" d="M952.2,450.7c-2.5-1.2-5-2.3-7.6-3.5c0.7-1.1,1.4-2.1,2.2-3.2c1.7,1.9,3.5,3.7,5.3,6.2
	C952.2,450.7,952.2,450.7,952.2,450.7z"/>
<path class="st6" d="M952.2,450.7c1.4,0.2,2.7,0.3,4.1,0.4c-0.2,0.7-0.3,1.4-0.5,2.1c-1.1-0.5-2.3-1-3.5-2
	C952.2,450.7,952.2,450.7,952.2,450.7z"/>
<path class="st6" d="M941,444.2c0.4,0,0.7,0.3,0.9,0.5C941.5,444.6,941.2,444.5,941,444.2z"/>
<path class="st17" d="M640.2,296.8c0.2,0.4-0.2,1-1,1.6C639,298,639.3,297.4,640.2,296.8z"/>
<path class="st12" d="M879.4,137.1c-1.6-0.1-2.6-0.4-4-1.2c8.8-9.1,17.9-17.7,27-26.3c0.5,0.4,1.1,0.8,1.6,1.2
	c-4.6,5.5-9.3,11-14.4,17.1c-0.6,0.8-0.7,0.9-0.8,1.1c0.2-0.2,0.5-0.4,0.7-0.6c1,0.4,2,0.8,4.1,1.6
	C888.4,132.6,884.2,134.7,879.4,137.1z"/>
<path class="st17" d="M916.9,117.9c-0.9,0.2-1.3,0.1-2.5-0.1c0.4-0.8,1.5-1.5,3.3-2.1C917.9,116.4,917.6,117,916.9,117.9z"/>
<path class="st6" d="M997,251.9c0.2-0.8,0.5-1.5,0.7-2.3c0,0.6,0,1.2-0.3,2.1C997,252,997,251.9,997,251.9z"/>
<path class="st6" d="M1242.3,282.4c0.2-0.7,0.4-1.5,0.6-2.3c0,0.6,0,1.2-0.3,2C1242.3,282.4,1242.3,282.4,1242.3,282.4z"/>
<path class="st4" d="M919.9,328.9c5.2-5.5,10.4-10.9,15.6-16.4c0.9,1,1.9,2.1,2.8,3.1c-5.7,4.4-11.3,8.9-17.6,13.4
	C920.1,329.1,920,329,919.9,328.9z"/>
<path class="st4" d="M942.5,311.1c-0.7,0.4-1.4,0.4-2.1,0.4c0-0.3,0-0.8,0-0.8C941.1,310.7,941.8,310.7,942.5,311.1z"/>
<path class="st4" d="M747.3,286c0.2,1.4-0.3,2.9-0.8,4.3c-2.4-1-4.8-2.1-7.3-3.7C741.6,286,744.1,286,747.3,286z"/>
<path class="st4" d="M785.1,275.5c-0.9,6.4-6,6.2-11.6,5.5C776.9,279,780.7,277.4,785.1,275.5z"/>
<path class="st4" d="M767,323.4c0.2,0.9-0.1,1.9-0.5,2.8c-0.8-0.5-1.5-1.1-2.3-2.2C764.9,323.5,765.7,323.5,767,323.4z"/>
<path class="st0" d="M456,351.9c-0.1,0.3-0.4,0.3-1.2,0.3C454.8,352,455.3,351.8,456,351.9z"/>
<path class="st12" d="M945,337.9c1.2,0.1,2.3,0.1,3.4,0.2c0,0.3,0,0.6,0,0.9c-0.9-0.1-1.9-0.1-3.1-0.6
	C945,337.9,945,337.9,945,337.9z"/>
<path class="st12" d="M968.8,103.1c-0.1-0.5,0-1.2,0.4-1.4c0.3-0.1,0.8,0.4,1.3,0.6C970.1,102.6,969.7,102.9,968.8,103.1z"/>
<path class="st9" d="M708.7,299.6c-3.1,1.3-6.3,1.9-10.1,2.5c-1.6-2.4-2.5-4.8-3.8-8.2c6.8-0.8,13.2-1.6,20.9-2.5
	C712.5,294.8,710.6,296.9,708.7,299.6z"/>
<path class="st9" d="M687.1,303.2c-4.3,0.1-8.5-0.5-13.5-1.1C677.6,301.6,682.6,293.9,687.1,303.2z"/>
<path class="st3" d="M844.9,134.4c7.4-11.6,14.8-22.6,22.5-33.4c1.4-2,3.7-3.3,6.2-5.5c1.2,3.6,2,6,3.1,9c0.3,0.6,0.3,0.6-0.4,0.6
	c-7.4,6.3-14.6,12.3-20.8,19.2c-2.2,2.4-2.2,6.7-3.1,10.7c-0.5,1.2-1,2-1.5,2.8C848.9,136.8,847,136,844.9,134.4z"/>
<path class="st6" d="M850.5,138.2c0.8-1.3,1.3-2,2.4-3.5c4.9-2.6,9.1-4.5,13.4-6.5c-2.2,4.5-4.4,9-6.9,14
	c-5.8,3.5-11.3,6.4-16.8,9.4c-0.4-0.6-0.9-1.1-1.3-1.7C844.3,146.2,847.2,142.5,850.5,138.2z"/>
<path class="st8" d="M842,136.5"/>
<path class="st17" d="M1118.8,322.2c0.1-0.6,0.4-0.7,1.2-0.7C1120,322,1119.5,322.3,1118.8,322.2z"/>
<path class="st9" d="M799.2,273.5c-0.7,0.4-1.4,0.4-2,0.4c0,0,0-0.8,0-0.8C797.9,273.1,798.6,273.1,799.2,273.5z"/>
<path class="st17" d="M882,99.8c0.2,0.4-0.2,1-1,1.7C880.8,101.2,881.1,100.6,882,99.8z"/>
<path class="st3" d="M876.2,91.6"/>
<path class="st8" d="M1141.1,285"/>
<path class="st7" d="M1055.1,410.5"/>
<path class="st8" d="M866.6,127.7c-4.5,2.5-8.8,4.4-13.7,6.6c0.4-3.2,0.4-7.6,2.5-10c6.3-6.8,13.4-12.8,20.8-19.2
	C873.6,112.4,870.3,119.8,866.6,127.7z"/>
<path class="st7" d="M899.2,137.3c3.7-0.9,8.1-1.9,13.1-2.3C908.5,136.1,904.3,136.7,899.2,137.3z"/>
<path class="st1" d="M919,435.7c-0.2,0.8-0.7,1.3-1.2,1.7c0,0-0.4-0.4-0.6-0.6C917.7,436.4,918.2,435.9,919,435.7z"/>
<path class="st5" d="M655.8,299.3"/>
<path class="st3" d="M593.2,129.4"/>
<path class="st7" d="M889.5,128.4c-0.2,0.2-0.5,0.4-0.7,0.6c0.1-0.1,0.2-0.3,0.5-0.5C889.5,128.4,889.5,128.4,889.5,128.4z"/>
</svg>
