<?xml version="1.0" encoding="utf-8"?>
<!-- Generator: Adobe Illustrator 25.2.1, SVG Export Plug-In . SVG Version: 6.00 Build 0)  -->
<svg version="1.1" xmlns="http://www.w3.org/2000/svg" xmlns:xlink="http://www.w3.org/1999/xlink" x="0px" y="0px"
	 viewBox="0 0 683 405" style="enable-background:new 0 0 683 405;" xml:space="preserve">
<style type="text/css">
	.st0{display:none;}
	.st1{display:inline;}
	.st2{fill:#8B9595;}
	.st3{fill:#8A9696;}
	.st4{fill:#899496;}
	.st5{fill:#8B9697;}
	.st6{fill:#859292;}
	.st7{fill:#848C89;}
	.st8{fill:#7A8484;}
	.st9{fill:#8A9697;}
	.st10{fill:#7D8788;}
	.st11{fill:#8D918C;}
	.st12{fill:#787B7D;}
	.st13{fill:#8E989A;}
	.st14{fill:#96A2A1;}
</style>
<g id="Capa_2" class="st0">
	<rect x="-406" y="-682.1" class="st1" width="1571.1" height="1643.1"/>
</g>
<g id="Capa_1">
	<path class="st2" d="M361.5,197.4c-3.1,0.3-6.2,0.5-9.3,0.9c-20.6,2.2-37.2-6-51-21.3c0.7-0.6,1.1-0.7,2.1-0.7
		c11.1-2,21.7-3.4,32-6.3c9.5-2.7,18.5-4.2,27.6,2c-0.7,2-1.5,4.1-2.4,6.8c10.8-5.9,14.3-5.6,20.8,2.2c1.1-2.4,3-4.7,2.5-6.3
		c-0.3-1.4-3.3-2.3-5.2-2.9c-8.3-2.6-16.7-5.2-25-7.6c-4-1.1-4.9-3.7-5-7.7c-0.2-7.9-0.8-15.8-1.5-23.7c-0.3-2.8-1.4-5.5-2.1-8.3
		c-0.7,0.2-1.3,0.3-2,0.5c1,11.3,2.1,22.5,3.1,34.3c-4.1-1.2-6.5-1.9-9.2-3.1c-4.9-4.1-9.5-7.8-14.2-11.9c0-0.4,0-1.1,0.5-1.2
		c0.3-5.4,0.4-10.7-0.3-16c-0.3-2.7-2-5.3-3.1-8.2c0-0.4,0-1.1,0-1.7c1-3.7,1.9-6.8,2.9-10c24.7,5.2,44.7,18.3,60,39
		c4.9,6.7,8.9,14.1,12.9,22c-2.8,2.7-5.3,4.6-8.2,6.8c4,1.1,7.1,1.9,9.9,3.2c-3.3,2.6-6.2,4.8-9.9,7c-6.3,1.8-13,1.5-16.4,8.9
		C367.6,195.4,364.5,196.4,361.5,197.4z"/>
	<path class="st2" d="M137.6,86c17.7,3.5,35.8,6,53.2,10.8c37.4,10.4,61.1,36.9,75.5,73.4c2.4,6.2,5,12.3,7,19
		c-13.8-8.5-27.1-17.5-40.5-26.5c-10.3-6.9-20.8-13.5-31.1-20.5c-10.7-7.3-21.1-14.9-31.7-22.3c-2.1-1.4-4.5-2.3-6.8-3.4
		c0,0,0,0-0.1-0.5c-1-1.2-1.9-1.8-2.8-2.5c0,0,0,0-0.2-0.4c-2-1.6-3.8-2.9-5.5-4.1c0,0,0,0-0.2-0.4c-4.1-4.3-8.3-7.9-11.7-12.1
		C140.4,93.4,139.3,89.5,137.6,86 M226.4,150.8c-1.3-9.9-2.7-19.8-4-29.7c-0.6,10.3,0.4,20.3,1.5,30.3
		C223.9,151.7,225.4,151.8,226.4,150.8z"/>
	<path class="st3" d="M166.4,345.3c3-24.5,12.3-46.4,26.6-65.8c18.2-24.6,41.6-41.4,71.5-48.2c0.4,0.1,0.3,0.4,0.1,0.8
		c3.2,1.1,6.6,2.2,10,2.3c8.8,0.3,17.6,0.1,26.6,0.1c-2.7,3.4-5,6.2-7.7,9c-5.4,3-10.3,6-15.2,9c0,0,0,0-0.6,0
		c-3.4,1.2-6.7,1.7-8.9,3.6c-6.2,5.4-12.7,9-21.2,8.4c-8.1-0.6-16.2-0.1-24.4-0.1c0,1,0,2.1,0,3.1c8.5,0,17,0,26.8,0
		c-11.6,11.6-24.1,14.4-37.6,14.1c4.4,0.7,8.7,0.4,12.9,0.9c1.9,0.2,3.7,1.9,5.6,2.8c0,0,0,0-0.4,0.1c-1.1,1-1.8,2-2.4,2.9
		c0,0,0,0-0.5,0c-9.4,5.7-18.2,11.5-27,17.2c0.8,0.3,2.1,0.9,3.7,1.6c-11.5,12.4-22.6,24.5-33.9,36.5
		C169.4,344.6,167.7,344.8,166.4,345.3z"/>
	<path class="st3" d="M268.2,303.4c-11.4,12.9-25.9,21.2-40.9,28.3c-13,6.2-26.6,11-40.5,15.8c-0.1-2.2,0.4-3.8,0.8-5.9
		c0-1.1,0-1.7,0.4-2.7c4.6-8.6,5.4-18.9,14-24.7c3.1-2.1,5-5.9,7.6-8.7c1-1,2.5-1.5,5.5-3.1c-1.2,10-2.2,18.3-3.2,26.7
		c0.8,0.1,1.6,0.2,2.4,0.3c0.7-4.2,1.6-8.4,1.9-12.7c0.8-10.1,0.8-20.4,10.9-26.3c0.4-0.3,0.5-1.3,0.7-2c0,0,0,0,0.5-0.1
		c1.1-1,1.8-2,2.4-2.9c0,0,0,0,0.5,0c8.7-5.6,16.7-11.2,25-16.6c3.3-2.2,6.9-3.9,10.4-5.8c0,0,0,0,0,0.7c0,9.7,0,18.7,0,28.2
		c0,1.1,0,1.8,0,3.1C267.2,298.2,267.7,300.8,268.2,303.4z"/>
	<path class="st3" d="M121.4,260.4c-3-0.3-6-0.7-9.4-1.9c0.4-2.5,1.1-4.3,2.2-5.8c3.4-4.6,6.9-9.1,10.3-13.6c0,0,0,0,0.5-0.1
		c13.3-11.5,28.8-6.3,43.5-8.3c-0.5,2.1-0.9,3.5-1.2,5c0.6,0.3,1.2,0.7,1.8,1c1.4-2.2,2.8-4.4,4.3-6.6c0,0,0,0,0.6-0.1
		c9.7-1.5,18.8-3.4,27.9-4.3c5.9-0.5,6.9,2,3.7,7.1c-2.3,3.7-5,7.2-7.5,10.8c0.5,0.5,1,0.9,1.5,1.4c2.1-2.1,4.1-4.3,6.3-6.3
		c3-2.8,6.2-5.4,9.3-8.1c1.8-1.6,4.2-2.6,5.6-4.6c3.5-5.1,6.8-4.4,10.4-0.4c-23.1,28.2-53.2,38.5-88.8,36c-3.7-1-7-6.6-9.3,0
		c-0.6,0-1.2,0.1-2.4-0.6C127.1,260.4,124.3,260.4,121.4,260.4 M163.1,241.4c0.4-1,0.7-1.9,1.3-3.7c-11.3,6.5-20.3,16.3-19.7,21.3
		C150.7,253.3,156.6,247.7,163.1,241.4 M179.1,236.7c-0.8,1.4-1.7,2.8-2.5,4.1c0.6,0.4,1.2,0.9,1.8,1.3c2.8-3.8,5.5-7.6,8.3-11.4
		c-0.6-0.5-1.3-1-1.9-1.5C183.1,231.5,181.4,233.7,179.1,236.7 M174.3,244.3c-0.2,0.8-0.3,1.7-0.5,2.5c0.6,0,1.1,0,1.7,0
		C175.4,246,175.3,245.1,174.3,244.3z"/>
	<path class="st4" d="M268,201.8c-40.2-0.9-75.3-14.1-102.3-46.5c-0.6-0.7-0.9-1.7-1.1-3.6c17,0.2,34.3-3.4,52.2,4
		c-8,2.4-14.2,4.2-20.3,6c0,1.1,0,2.3,0,3.4c19.2-10.6,33.9-2.4,49,11.3c-14.5,1.4-27.5,2.6-41.6,3.9c2.3,0.9,3.8,2,5.2,1.9
		c8.2-0.6,16.4-0.9,24.5-2.3c13-2.3,33.8,6.3,40.7,17.7c0.7,1.1,0.5,2.9,0.7,4.3c-1.5,0.1-3,0.1-5.2-0.2
		C268.9,201.5,268.5,201.6,268,201.8z"/>
	<path class="st5" d="M346.5,321.2c-12.9,11.4-25.9,22.8-38.8,34.2c-1-0.6-2.1-1.1-3.1-1.7c-2.9-22.8-4.4-45.5,3-68
		c2,0.5,3.9,1.6,4.9,1c4.1-2.4,7.7-5.9,11.9-8c6.4-3.3,13.3-5.9,19.9-8.8c0.6,1.2,1.2,2.3,1.7,3.5c-5.8,4.4-11.7,8.8-17.5,13.2
		c0.3,0.5,0.5,0.9,0.8,1.4c1.9,0,3.8,0,5.6,0c-2.8,11.6-13.9,18.8-13.4,31.7c8.1-11.1,11.4-25.4,22.5-34.9c1.1,9.8,1,19.3,1.2,28.9
		C345.2,316.1,346,318.6,346.5,321.2z"/>
	<path class="st2" d="M82.2,211.8c16.1-11,34.1-17.3,53.3-21.3c4.4,2.6,8.2,4.6,11.9,6.7c0,0,0,0,0.2,0.4c9.6,6.6,19.1,12.8,28.5,19
		c0,0,0,0,0.2,0.5c2.1,1.8,4,3.1,6,4.5c-8.3,2.5-15.4,2.6-22.2,4.2c-7.5,1.7-13.8,0.7-19.7-4.5c-2.2-1.9-5-3-7.5-4.4
		c-0.3,0.6-0.7,1.1-1,1.7c3.6,2.7,7.2,5.4,10.9,8.2c-12.5,1-24.5,6.4-36.7-0.7c-7.4-4.3-15.5-7.3-23.3-10.8c0,0,0,0,0.1-0.4
		C82.8,213.5,82.5,212.6,82.2,211.8 M128.5,212.9c-1.1,0-2.2,0-3.3,0c0.3,0.8,0.6,1.6,0.9,2.4C127.1,214.8,128.2,214.2,128.5,212.9
		 M122.4,211.1c-0.4-0.4-0.7-0.8-1.1-1.2c0,0-0.3,0.3-0.5,0.5C121.1,210.7,121.5,211.1,122.4,211.1z"/>
	<path class="st5" d="M391.3,228.5c1.1,26-7.6,48.7-22.4,68.9c-5.6,7.6-12.7,14.1-19.8,20.7c-0.7-8.5,1-17-1.1-24.5
		c-5.4-19.8,10-28.8,16.6-42.3c0.6,0.2,1.1,0.3,1.7,0.5c1.5,7.5,2.9,14.9,4.4,22.4c0.6-0.1,1.3-0.2,1.9-0.2
		c-0.2-2.4-0.2-4.9-0.7-7.2c-3.1-14.2-4.2-27.9,8.8-38.2c1.4-1.1,1.6-3.9,2.3-5.9c0,0,0,0,0.4,0c2.6,0,4.8,0.1,7,0.1
		c0.1,0.5,0.3,1.1,0,2.3C390.4,226.7,390.9,227.6,391.3,228.5z"/>
	<path class="st6" d="M431.8,182.8c9.8-2.8,19.7-5.2,29.3-8.5c9.9-3.4,19.6-7.3,29.2-11.7c2.6-1.2,4.3-4.5,7.4-7
		c8.5-1.2,16-2.3,24.5-3.6c4.7-2.2,9.3-4.4,14-6.6c4.4-1.3,8.8-2.6,13.3-3.9c8.2-2.9,16.3-5.8,25-8.7c1.8,0,3.1,0,4.5,0
		c0.1,0.7,0.3,1.3,0.4,2c-8.2,3.4-16.5,6.7-24.7,10.3c-3.7,1.6-7.2,3.9-11.1,6.2c-19.7,7.2-39.1,13.8-58.3,20.9
		c-2.3,0.8-4,3.6-5.9,5.5c-18.6,4.8-37.2,9.6-56.6,14c-2.3-0.9-3.7-1.4-4.8-2.2C422.7,186.9,427.3,184.8,431.8,182.8 M474.2,177.1
		C474.2,177.1,474.1,177,474.2,177.1z"/>
	<path class="st7" d="M82.8,215.1c7.8,3.6,15.9,6.5,23.3,10.8c12.1,7.2,24.2,1.7,36.7,0.7c-3.6-2.7-7.2-5.4-10.9-8.2
		c0.3-0.6,0.7-1.1,1-1.7c2.5,1.5,5.3,2.6,7.5,4.4c5.9,5.2,12.2,6.2,19.7,4.5c6.8-1.6,13.9-1.7,22.2-4.2c-1.9-1.3-3.8-2.7-5.4-4.5
		c17.4,10.7,34.8,2.4,52,2.1c0.2-1.2,0.3-2.4,0.5-3.6c-3.4-0.8-6.8-1.6-11.4-2.6c0-1.6,0-4.6,0-7.7c1.1,0.5,2.3,0.8,3.2,1.6
		c19.3,16.4,42,15.1,64.8,13.5c6.6-0.5,13.2-2.1,20.4-2.5c-0.9,3-2.3,5.4-4.2,8c-1,0.2-1.7,0.2-2.4-0.2c-0.7-1.1-1.3-1.6-1.9-2.2
		c-0.4,1.1-0.7,2.1-1.5,3.4c-1.2,0.3-1.8,0.4-3.1,0.5c-9.7,0.3-18.8,0.8-27.9,1.2c-8.1-1.4-16.3-3-24.5-4.1
		c-2.8-0.4-5.9,0.6-9.3,1.2c-4.1-3.7-7.4-4.4-10.9,0.7c-1.3,1.9-3.7,3-5.6,4.6c-3.1,2.7-6.3,5.3-9.3,8.1c-2.2,2-4.2,4.2-6.3,6.3
		c-0.5-0.5-1-0.9-1.5-1.4c2.5-3.6,5.2-7.1,7.5-10.8c3.2-5.2,2.1-7.7-3.7-7.1c-9.2,0.8-18.3,2.7-28,4.1c-0.6,0-0.5,0.1-0.5,0.3
		c-1.4,2.2-2.8,4.4-4.3,6.6c-0.6-0.3-1.2-0.7-1.8-1c0.4-1.4,0.7-2.9,1.2-5c-14.7,2-30.2-3.2-43.5,7.6c-2.6-1.6-4.6-3.7-6.6-3.6
		c-14,0.2-28,0.7-42,1.5c-5.2,0.3-10.3,1.6-15.5,2.4c9.5,3,9.5,3,11.8,8.9c-9-2.9-18-5.8-27-8.8c-0.2-0.8-0.4-1.6-0.6-2.4
		c2.5-1.8,5-3.6,8.1-4.9c0,2.1-0.6,3.7-0.9,4.6c18.6-1.6,36.8-3.2,57.3-5c-3.6-2-5.4-2.9-7.1-3.9C95.9,223.2,89.4,219.1,82.8,215.1
		 M216.8,223.3c-0.4,0.4-0.8,0.8-1.2,1.2c0.2,0.2,0.4,0.5,0.4,0.5C216.5,224.6,216.9,224.2,216.8,223.3z"/>
	<path class="st5" d="M308.4,280.9c4.2-19.4,15.4-34.2,29.6-48c1.7-1.2,2.5-2.2,3.2-3.3c0.7-0.4,1.4-0.9,2.5-0.9
		c1.2,1.4,2.4,3.2,2.5,3.1c4.1-2.6,7.8-6.1,12.2-7.9c8-3.3,16.4-5.6,25.8-8.7c-0.7,3.9-0.9,5.6-1.2,7.2c0,0,0,0-0.4,0.2
		c-3.3,3.2-6.5,5.9-9.1,9.1c-4.1,5.2-8.5,8.7-15.4,9.2c-7.3,0.5-14.6,2.6-21.8,4c0.1,0.9,0.3,1.8,0.4,2.6c9.5-1.7,19-3.5,30.5-5.6
		c-3,4.6-4.3,7.9-6.6,10.1c-5.5,5.3-11.1,10.9-17.5,14.9c-5.9,3.7-12.8,6-19.5,8.1C318.5,277,314.9,283.2,308.4,280.9z"/>
	<path class="st2" d="M217.8,205c0.2,3.3,0.2,6.4,0.2,8c4.6,1.1,8,1.9,11.4,2.6c-0.2,1.2-0.3,2.4-0.5,3.6
		c-17.2,0.3-34.6,8.6-52.2-2.6c-0.5,0-0.6,0-0.6-0.5c-6.3-5.5-12.5-10.7-19-15.2c-2.8-1.9-6.4-2.5-9.7-3.7c0,0,0,0-0.1-0.5
		c0.7-2.2,1.3-5,2.3-5.2c5.5-0.9,11.1-1,16.6-1.5c2.3-0.2,4.6-0.9,6.9-1.4c0.3,0,0.6,0,1.5,0.5c3.8,4.2,7,7.9,10.2,11.5
		c0.4-1.1,0.8-2.1,1.2-3.2c4,0.3,8,0.5,12,0.8c1.4,0.1,2.8,0.2,4.2,0.3c0,0-0.1,0.1,0.1,0.5c1,0.6,1.9,0.8,2.7,1c0,0,0-0.2,0,0.4
		c3.8,1.8,7.6,3,11.4,4.2C216.9,204.4,217.3,204.5,217.8,205 M190.8,202.6c0-0.6,0-1.1,0-1.7c0,0-0.4,0-0.7,0
		C190.1,201.4,190.1,202,190.8,202.6 M195.7,204.4c-0.5,0-1.1,0-1.6,0c0,0.2,0,0.7,0,0.7C194.6,205.1,195.1,205.1,195.7,204.4
		 M198.9,206.8c0,0.6,0,1.1,0,1.7c0,0,0.6,0,0.6,0C199.6,207.9,199.6,207.4,198.9,206.8z"/>
	<path class="st8" d="M302.6,225.6c1.4-2.4,2.9-4.8,4.3-7.7c0.7-0.7,1.3-0.9,2.8-0.7c3,0.5,5,0.7,7.1,0.8c0-0.6,0.1-1.2,0.1-1.8
		c-2.5-0.4-4.9-0.7-7.4-1.1c-11.2-4.3-22.3-8.6-34-13.1c-0.7-1.7-0.5-3.4-1.2-4.6c-6.9-11.5-27.7-20.1-40.7-17.7
		c-8.1,1.5-16.3,1.7-24.5,2.3c-1.4,0.1-2.9-1-5.2-1.9c14.1-1.3,27.1-2.6,41.6-3.9c-15.1-13.7-29.8-21.8-49-11.3c0-1.1,0-2.3,0-3.4
		c6.1-1.8,12.2-3.6,20.3-6c-17.9-7.4-35.2-3.8-52.2-4.5c-1.6-0.9-2.9-2.4-3.9-4.5c5.3,0.2,10.2,1.5,15.2,1.8
		c8.7,0.4,17.4,0.1,27.7,0.1c-8.8-5.9-16.4-10.4-23.4-15.9c-6.1-4.8-11.4-10.7-17.1-16.2c2.3,1.1,4.7,2,6.8,3.4
		c10.6,7.4,21.1,15,31.7,22.3c10.3,7,20.8,13.6,31.1,20.5c13.4,9,26.6,18,40.5,27c7.7,4.9,14.7,10.2,22.2,14.6
		c5.7,3.3,12.1,5.2,18,8.2c6.1,3,12.1,3.4,18.7,1c0.1,3.1-0.4,5.6-0.9,8c-1,0.8-2.1,1.7-4,2.7c-4.6-0.1-8.2-0.4-12.5-0.4
		C310.4,224.4,306.5,225,302.6,225.6z"/>
	<path class="st9" d="M163.2,116.4c5.7,5.4,11,11.3,17.1,16.2c7,5.5,14.6,10,23.4,15.9c-10.3,0-19,0.3-27.7-0.1
		c-5-0.2-9.9-1.6-15.3-2.2c-1-0.3-1.4-0.8-1.8-2.2c0.9-2.3,1.7-3.7,3-6c-3-0.1-5.2-0.3-7.5-0.4c-6.2-12.2-12.4-24.3-18.1-37.1
		c2.5,0.1,4.7,0.4,6.5,1.4c4,2.2,7.8,4.7,11.7,7c0,0,0,0,0,0.5c1.9,1.7,3.8,2.8,5.7,4c0,0,0,0,0,0.5
		C161.4,115.1,162.3,115.8,163.2,116.4C163.2,116.5,163.2,116.4,163.2,116.4z"/>
	<path class="st2" d="M543.9,150.8c3.6-2,7-4.2,10.8-5.8c8.2-3.6,16.4-6.9,24.7-10.3c-0.1-0.7-0.3-1.3-0.4-2c-1.3,0-2.7,0-4.5-0.5
		c-1.1-6.9,3.3-3.8,5.9-4.1c3.5-0.3,7.5,0.5,10.4-1.1c20.8-11.1,41.4-22.6,62-33.9c3.1-1.7,6.3-3.5,9.3-5.2
		c5.3,5.9,5.4,8.5-0.7,12.5c-10.3,6.7-21,12.8-32.3,18.8c-2.7,0-4.8-0.2-6.5,0.6c-11.2,5.2-22.3,10.9-33.6,16
		c-10,4.5-20.1,8.4-30.3,12.3c-2.4,0.9-5.1,0.8-8.1,1.2c-1.1,0.5-1.8,1-3,1.5C546.1,150.8,545,150.8,543.9,150.8z"/>
	<path class="st9" d="M273,136c-4.2-13-8.3-26-11.9-39.7c2,0.5,3.7,1.4,5,2.7c7.1,7.6,14.1,15.4,21.1,23c2.1,2.2,4.4,4.1,7.8,7.3
		c-6.3-0.3-10.4-0.5-14.5-0.7c-0.2,1-0.4,2-0.5,3c13.5-0.9,25.5,2.2,35.6,14.5c-9,0.3-16.9,0.8-24.8,0.7c-3.4,0-7-1.9-7,4.5
		c-0.7,1.3-1.4,2-2.1,2.8c-0.7-0.8-1.4-1.6-1.8-3.2C281.5,143.5,277.9,139.4,273,136z"/>
	<path class="st10" d="M308.3,281.4c6.6,1.8,10.2-4.4,15.4-6.1c6.7-2.2,13.5-4.4,19.5-8.1c6.4-4,11.9-9.6,17.5-14.9
		c2.3-2.2,3.6-5.5,6.6-10.1c-11.5,2.1-21,3.8-30.5,5.6c-0.1-0.9-0.3-1.8-0.4-2.6c7.3-1.4,14.5-3.5,21.8-4c6.9-0.5,11.3-4.1,15.4-9.2
		c2.6-3.2,5.8-6,9.1-9.1c-0.3,1.8-0.5,4.6-1.9,5.7c-13,10.3-11.9,24-8.8,38.2c0.5,2.3,0.5,4.8,0.7,7.2c-0.6,0.1-1.3,0.2-1.9,0.2
		c-1.5-7.5-2.9-14.9-4.4-22.4c-0.6-0.2-1.1-0.3-1.7-0.5c-6.6,13.5-22,22.6-16.6,42.3c2,7.5,0.3,16.1,0.6,24.7
		c-0.3,1.2-0.9,1.8-1.8,2.7c-0.8-2.3-1.7-4.8-1.8-7.4c-0.2-9.5-0.1-19.1-1.2-28.9c-11.1,9.5-14.4,23.8-22.5,34.9
		c-0.5-12.9,10.7-20.1,13.4-31.7c-1.8,0-3.7,0-5.6,0c-0.3-0.5-0.5-0.9-0.8-1.4c5.8-4.4,11.7-8.8,17.5-13.2c-0.6-1.2-1.2-2.3-1.7-3.5
		c-6.7,2.9-13.5,5.4-19.9,8.8c-4.2,2.2-7.8,5.6-11.9,8c-1,0.6-2.9-0.6-4.5-1.5C307.9,283.7,308,282.8,308.3,281.4z"/>
	<path class="st3" d="M73,247.8c-2.6-6.3-2.6-6.3-12.2-9.3c5.2-0.8,10.3-2.1,15.5-2.4c14-0.8,28-1.2,42-1.5c2,0,4,2,6.1,3.7
		c0,0.6,0,0.6-0.5,0.7c-8,5.7-15.4,11.3-22.9,17C91.8,253.5,82.6,250.8,73,247.8z"/>
	<path class="st5" d="M266.7,294.4c0-0.7,0-1.3,0.6-2.6c1-5.3,2.3-10.1,1.6-14.6c-1.6-10.8,0.3-16.6,8.6-22.6c0.5-0.3,0.5-1.3,0.7-2
		c0,0,0,0,0.6,0c1.9,1.3,4.2,2.5,4.4,4c0.6,3.8,0.2,7.7,0.2,11.6c0.6,0.1,1.2,0.1,1.9,0.2c1-6.5,2.1-13.1,3.1-19.7
		c2.1-1.5,4.6-3.3,7.7-5c1.8,0.1,2.9,0.1,4.1,0.2c-7,15.7-13.9,31.5-21.1,47c-1.6,3.5-4.7,6.2-7.8,8.9
		C269.3,297.8,268,296.1,266.7,294.4z"/>
	<path class="st10" d="M283.9,150.8c0-5.9,3.6-4,7-3.9c7.9,0.1,15.8-0.4,24.8-0.7c-10.2-12.3-22.1-15.5-35.6-14.5c0.2-1,0.4-2,0.5-3
		c4.1,0.2,8.2,0.4,14.5,0.7c-3.5-3.2-5.8-5.1-7.8-7.3c-7.1-7.6-14-15.4-21.1-23c-1.3-1.4-3-2.3-5-3.4c-1.3-2.9-2.8-6.9,2.4-5.4
		c10.5,3.1,20.7,7.1,31.5,11.6c2,6.9,3.2,12.9,5.1,18.8c1.3,3.9,2.8,8.4,5.6,11c5.2,5,11.4,8.8,17.1,13.1c4.6,3.7,9.3,7.4,14.1,11.5
		c0.2,0.5,0.2,0.5-0.4,0.5c-3.4-1.2-6.2-2.4-9-3.5c-3.4-1.4-6.9-3.7-10.3-3.7c-7.7-0.2-15.5,0.8-23.8,1.3
		C289.8,150.8,286.8,150.8,283.9,150.8 M275.5,99.4c0.4,2.8,0,6.2,1.4,8.3c1.9,2.9,5.2,4.9,7.9,7.3c2.9,2.6,5.6,5.3,8.5,8
		c0.6-0.4,1.2-0.8,1.7-1.2c0-2.6,0.4-5.2-0.1-7.7C293,103.7,285.5,100.2,275.5,99.4 M269.3,96.1c0,0.6,0,1.1,0,1.7c0,0,0.6,0,0.6,0
		C269.9,97.3,269.9,96.7,269.3,96.1z"/>
	<path class="st3" d="M322.7,144.5c-5.8-3.9-11.9-7.8-17.1-12.7c-2.8-2.7-4.3-7.1-5.6-11c-1.9-5.8-3.1-11.9-4.6-18.4
		c3.5-0.3,7,0,11,1.1c1.1,1.8,1.5,3.6,2.2,3.7c5.1,0.8,8.1,3.4,8.7,8.9c0.1,0.8,1.7,1.3,2.5,2c0,0,0,0.7,0,1.7
		c1,8.6,1.9,16.1,2.9,23.7C322.7,143.4,322.7,144.1,322.7,144.5z"/>
	<path class="st3" d="M82.8,215.1c6.6,4,13.1,8,19.7,12c1.7,1,3.5,1.9,7.1,3.9c-20.5,1.8-38.7,3.4-57.3,5c0.3-0.9,0.9-2.5,1.4-4.7
		c-0.1-0.5,0-0.5,0.4-0.2c4.6,1.5,9.2-3.1,8.4-7.6c5-3.3,10-6.6,15.8-9.5C80.4,214.7,81.6,214.9,82.8,215.1
		C82.8,215.1,82.8,215.1,82.8,215.1z"/>
	<path class="st11" d="M331.9,221.4c-0.1-2.4,0.4-4.9,0.9-8c9.3-4.3,18.4-7.9,28.6-11.7c8.4-3.4,15.7-6.6,23.6-9.9
		c2.4-0.5,4.3-0.9,6.4-0.8c2.1,2.3,3.9,4.2,5.8,6.1C375.7,205.1,354.1,213.2,331.9,221.4z"/>
	<path class="st12" d="M397.9,197c-2.4-1.9-4.3-3.8-5.8-6.3c7.6-1.9,14.9-3.3,22.2-4.7c0.1-1.2,0.2-2.4,0.3-3.6
		c-5.6-1.5-11.3-3-16.9-4.6c-3.1-0.8-6.2-1.7-10.2-2.8c2.9-2.2,5.3-4.1,8.3-6.2c7.4,3.1,14.7,5.8,21.1,10c4.5,2.9,8.5,5.1,14.4,3.8
		c-3.9,2.1-8.4,4.1-13.7,6.9c0.6,1.6,2,2.4,3.3,3.2c-6.8,5-13.6,10-21.4,14.8c-1.4-1.4-1.9-2.6-2.4-3.7c3.6-2.2,7.1-4.3,10.7-6.5
		c-0.1-0.5-0.2-1.1-0.3-1.6C404.5,196.2,401.5,196.6,397.9,197z"/>
	<path class="st10" d="M227.4,288.4c0.3,0.7,0.3,1.8-0.1,2c-10.1,5.9-10.1,16.2-10.9,26.3c-0.3,4.3-1.3,8.5-1.9,12.7
		c-0.8-0.1-1.6-0.2-2.4-0.3c1-8.3,2-16.6,3.2-26.7c-2.9,1.6-4.5,2.1-5.5,3.1c-2.7,2.8-4.6,6.6-7.6,8.7c-8.6,5.9-9.4,16.1-14,24.1
		c-0.1-3,0.3-5.7,0.8-9.6c-6.9,7.6-12.8,14.2-19,20.7c-0.9,0.9-2.6,1.1-3.9,1.6c0-1.6,0.1-3.2,0.3-5.3c1.4-1.1,3.1-1.2,3.9-2.1
		c11.3-12,22.4-24.1,33.9-36.5c-1.6-0.7-3-1.3-3.7-1.6C209.2,299.9,218,294.1,227.4,288.4z"/>
	<path class="st10" d="M396.6,204c1,1,1.5,2.2,2.4,3.7c-3.6,4-11.3,5-8.5,14.3c-2.2,0.6-4.4,0.5-7.1,0.5c-0.2-1.6,0.1-3.2,0.8-7.2
		c-9.4,3.1-17.8,5.4-25.8,8.7c-4.4,1.8-8.1,5.3-12.2,7.9c-0.1,0.1-1.4-1.7-2.1-3.2c0.8-1.2,1.6-1.8,3.2-2.9
		c9.1-5.1,17.4-9.7,25.8-14.4c0.6-0.2,1.2-0.4,2.5-0.3c1.5-0.1,2.4-0.5,3.2-0.9C384.6,208.3,390.3,206.2,396.6,204z"/>
	<path class="st7" d="M300.6,243.5c-1.6,0.2-2.8,0.2-4.9,0.1c-1.2,0-1.5-0.1-1.8-0.1c2.2-2.8,4.4-5.5,7.2-9c-9,0-17.8,0.2-26.6-0.1
		c-3.4-0.1-6.8-1.2-9.2-2.3c9.3-1,17.6-1.6,26.5-2.1c8.5,2.7,16.3,2.8,23.6-2.1c2.1-1.4,4.8-2.8,0.1-4.4c3.6,0.2,7.3,0.5,11.5,0.8
		c-4.9,4.2-10.4,8.3-16,12.3C307.8,238.9,304.3,241,300.6,243.5z"/>
	<path class="st2" d="M283.8,151.4c3-0.5,5.9-0.5,9.5,0c1.7,3,2.8,5.4,3.7,7.8c1.5,4.1,2.8,8.3,4.1,12.9c0,0.4,0,1.1-0.3,1.3
		c-0.6,1-0.9,1.8-1.1,2.5c-5.9-6.9-11.8-13.9-17.8-21.3C282.4,153.4,283.1,152.7,283.8,151.4z"/>
	<path class="st13" d="M165.7,351.6c1.6-0.9,3.2-1,4.1-2c6.1-6.5,12.1-13.2,19-20.7c-0.5,3.9-0.8,6.6-1.2,9.9c0,1.2,0,1.8-0.5,3
		c-4,3.6-7.5,6.6-10.9,9.7C172.7,352.2,169.3,357.4,165.7,351.6z"/>
	<path class="st7" d="M172.7,188.3c-1.7,0.6-4,1.3-6.4,1.6c-5.5,0.6-11.1,0.7-16.6,1.5c-1,0.2-1.6,3-2.3,5.2
		c-3.7-1.5-7.4-3.6-11.3-6.2C148,189.4,160.1,188.8,172.7,188.3z"/>
	<path class="st8" d="M154.4,108.5c-3.7-1.9-7.5-4.4-11.5-6.6c-1.8-1-4-1.4-6.5-2c-0.7-0.4-0.9-0.8-0.9-2.3
		c-0.8-2.3-1.7-3.7-2.6-5.1c-0.5-1-1-2.1-1.4-4.1c0.1-1.7,0.2-2.4,0.2-3.2c1.7,0.1,3.3,0.2,5.5,0.4c2.1,3.7,3.3,7.7,5.6,10.6
		C146.1,100.7,150.3,104.2,154.4,108.5z"/>
	<path class="st7" d="M202.2,197.8c-1.3,0.4-2.7,0.3-4.1,0.2c-4-0.3-8-0.5-12-0.8c-0.4,1.1-0.8,2.1-1.2,3.2
		c-3.2-3.7-6.4-7.3-9.8-11.4C184,191.6,193,194.4,202.2,197.8z"/>
	<path class="st7" d="M101.6,256.3c7-5.9,14.4-11.5,22.4-17.2c-3,4.5-6.5,8.9-9.8,13.5c-1.1,1.5-1.7,3.2-2.6,5.4
		C108.3,258,105.2,257.3,101.6,256.3z"/>
	<path class="st14" d="M372.6,211.3c-7.8,4.8-16.2,9.5-25,14.2C352.7,215.8,362.8,214.2,372.6,211.3z"/>
	<path class="st7" d="M319.8,117.4c-0.9-0.1-2.5-0.6-2.5-1.4c-0.6-5.5-3.6-8.2-8.7-8.9c-0.7-0.1-1.1-1.9-1.7-3.4
		c5,0.7,10,1.9,15.4,3.4C321.8,110.5,320.8,113.6,319.8,117.4z"/>
	<path class="st10" d="M273,136.5c4.9,2.8,8.5,7,6.9,14C277.4,146.3,275.2,141.7,273,136.5z"/>
	<path class="st10" d="M176.8,351.4c2.9-3,6.4-6,10.4-9.2c0.1,1.6-0.4,3.2-0.9,5.3C183.2,349.2,180.3,350.3,176.8,351.4z"/>
	<path class="st7" d="M62,223.8c1.2,4.3-3.4,8.9-7.9,7.4C56.3,228.6,58.9,226.3,62,223.8z"/>
	<path class="st7" d="M216.2,204.1c-3.5-0.8-7.2-2-10.9-3.8C208.8,201,212.3,202.3,216.2,204.1z"/>
	<path class="st10" d="M266.7,295c1.3,1.1,2.6,2.8,4.1,4.9c-0.5,1.3-1.2,2.2-2.2,3.3C267.7,300.8,267.2,298.2,266.7,295z"/>
	<path class="st8" d="M154.6,138.1c2.1-0.4,4.4-0.3,7.4-0.1c-1.3,2.3-2.1,3.7-3,5.6C157.4,142.3,156.1,140.4,154.6,138.1z"/>
	<path class="st7" d="M133.4,262c1.9-6.9,5.2-1.3,8.4-0.5C139.4,262.1,136.6,262.2,133.4,262z"/>
	<path class="st7" d="M121.9,260.6c2.4-0.2,5.2-0.2,8.2,0.4C127.6,261.3,125,261.1,121.9,260.6z"/>
	<path class="st7" d="M309.8,215.6c2.3-0.1,4.8,0.3,7.2,0.7c0,0.6-0.1,1.2-0.1,1.8c-2.1-0.2-4.2-0.3-6.6-0.8
		C309.9,216.6,309.9,216.3,309.8,215.6z"/>
	<path class="st10" d="M421.1,192.8c-1.6-0.8-2.9-1.6-3.9-2.8c1.7,0.1,3.1,0.6,4.9,1.6C422.1,192.4,421.8,192.7,421.1,192.8z"/>
	<path class="st9" d="M133,93.1c0.9,0.9,1.8,2.2,2.6,4.2C134.6,96.5,133.8,95,133,93.1z"/>
	<path class="st7" d="M82.9,214.8c-1.4,0.2-2.6-0.1-4.1-0.7c0.7-0.8,1.7-1.3,3-2.1C82.5,212.6,82.8,213.5,82.9,214.8z"/>
	<path class="st3" d="M299.9,176.2c0.1-1,0.3-1.7,1.3-2.5c0.9,0.8,1.2,1.7,1.4,2.5c-0.3,0-0.7,0.1-1.5,0.2
		C300.6,176.5,300.1,176.4,299.9,176.2z"/>
	<path class="st14" d="M340.8,229.9c-0.3,0.9-1.1,1.9-2.4,3C338.7,231.9,339.5,230.9,340.8,229.9z"/>
	<path class="st14" d="M378.5,210.1c-0.5,0.6-1.3,1-2.4,1.1C376.6,210.6,377.4,210.3,378.5,210.1z"/>
	<path class="st10" d="M391.4,228.1c-0.5-0.5-1-1.4-1-2.6C391,226,391.2,226.8,391.4,228.1z"/>
	<path class="st2" d="M131.3,85.4c0.4,0.7,0.3,1.4,0.2,2.7C131.2,87.6,131,86.5,131.3,85.4z"/>
	<path class="st7" d="M205,199.4c-0.8,0.3-1.6,0.1-2.7-0.6C203.1,198.5,204,198.7,205,199.4z"/>
	<path class="st8" d="M268.4,201.9c0-0.2,0.5-0.4,1-0.3C269.3,201.8,269.1,201.9,268.4,201.9z"/>
	<path class="st10" d="M303.3,176.2c-0.9-0.8-1.1-1.6-1.7-2.7c-0.3-0.3-0.4-1,0.1-1.6c14.7,2.7,27.5-3.1,41.3-7.2
		c-2.3-3.1-4.1-5.5-5.9-7.9c0,0,0,0,0,0c2.5,0.7,4.9,1.4,9,2.6c-1.1-11.8-2.1-23.1-3.1-34.3c0.7-0.2,1.3-0.3,2-0.5
		c0.7,2.8,1.8,5.5,2.1,8.3c0.7,7.9,1.3,15.8,1.5,23.7c0.1,4,1,6.6,5,7.7c8.4,2.4,16.7,4.9,25,7.6c1.9,0.6,4.9,1.5,5.2,2.9
		c0.4,1.6-1.5,3.9-2.5,6.3c-6.5-7.9-9.9-8.2-20.8-2.2c1-2.7,1.7-4.8,2.4-6.8c-9.2-6.2-18.1-4.8-27.6-2
		C325,172.9,314.3,174.2,303.3,176.2z"/>
	<path class="st7" d="M323.2,143.3c-1.5-7.4-2.4-15-3.4-23.2c1.1,1.9,2.7,4.5,3.1,7.2C323.6,132.5,323.5,137.9,323.2,143.3z"/>
	<path class="st12" d="M387.5,185.3c-0.4,1.2-1.4,2.5-2.8,4c-4.3,1.7-8.2,3.2-12.6,4.6C374.5,186.8,381.2,187.1,387.5,185.3z"/>
	<path class="st8" d="M226.3,151.4c-0.9,0.4-2.4,0.3-2.4,0.1c-1.1-10-2.1-20.1-1.5-30.3C223.7,131,225,140.9,226.3,151.4z"/>
	<path class="st8" d="M160.2,113c-1.7-0.7-3.6-1.8-5.5-3.5C156.4,110.2,158.2,111.4,160.2,113z"/>
	<path class="st8" d="M163.2,116c-0.9-0.2-1.8-0.9-2.8-2C161.3,114.1,162.2,114.8,163.2,116z"/>
	<path class="st10" d="M277.6,252.5c0.3,0.7,0.3,1.7-0.2,2c-8.3,6-10.2,11.8-8.6,22.6c0.7,4.5-0.7,9.3-1.6,14.1
		c-0.6-8.9-0.6-17.9-0.4-27.7c0.3-0.9,0.3-1,0.4-1.1c-0.2,0.2-0.4,0.3-0.6,0.5c-3.5,1.9-7.1,3.6-10.4,5.8c-8.2,5.4-16.3,11-25,16.6
		c-2.4-0.9-4.2-2.6-6.1-2.8c-4.2-0.4-8.5-0.1-12.9-0.9c13.6,0.3,26.1-2.5,37.6-14.1c-9.8,0-18.3,0-26.8,0c0-1,0-2.1,0-3.1
		c8.1,0,16.3-0.4,24.4,0.1c8.5,0.6,15-3.1,21.2-8.4C270.9,254.3,274.2,253.7,277.6,252.5z"/>
	<path class="st10" d="M293.4,243.5c0.8,0,1.1,0,1.7,0.1c-2.1,1.8-4.6,3.5-6.7,5c-1.1,6.7-2.1,13.2-3.1,19.7
		c-0.6-0.1-1.2-0.1-1.9-0.2c0-3.9,0.4-7.8-0.2-11.6c-0.2-1.5-2.5-2.7-4.4-4C283,249.5,287.9,246.5,293.4,243.5z"/>
	<path class="st10" d="M230.3,285.5c-0.2,0.9-0.9,1.8-2,2.9C228.5,287.5,229.2,286.5,230.3,285.5z"/>
	<path class="st7" d="M162.8,241.8c-6.2,6-12,11.6-18,17.3c-0.7-5,8.3-14.8,19.7-21.3C163.8,239.5,163.5,240.4,162.8,241.8z"/>
	<path class="st7" d="M179.4,236.3c2-2.6,3.7-4.9,5.4-7.1c0.6,0.5,1.3,1,1.9,1.5c-2.8,3.8-5.5,7.6-8.3,11.4
		c-0.6-0.4-1.2-0.9-1.8-1.3C177.4,239.5,178.2,238.1,179.4,236.3z"/>
	<path class="st7" d="M174.8,244.3c0.6,0.8,0.7,1.7,0.8,2.5c-0.6,0-1.1,0-1.7,0C174,246,174.2,245.1,174.8,244.3z"/>
	<path class="st7" d="M147.7,197.6c3,0.7,6.7,1.3,9.4,3.2c6.5,4.6,12.7,9.8,19,15.2C166.7,210.4,157.3,204.3,147.7,197.6z"/>
	<path class="st7" d="M128.8,213.3c-0.7,0.9-1.7,1.5-2.7,2.1c-0.3-0.8-0.6-1.6-0.9-2.4C126.3,212.9,127.4,212.9,128.8,213.3z"/>
	<path class="st7" d="M122.1,211.3c-0.6-0.2-1-0.6-1.4-1c0.2-0.2,0.5-0.5,0.5-0.5C121.6,210.2,122,210.7,122.1,211.3z"/>
	<path class="st10" d="M474.2,177C474.1,177,474.2,177.1,474.2,177z"/>
	<path class="st8" d="M299.8,225.6c-0.7,0.7-1.4,1-2.5,1.1c0-1.2,0.3-2.2,0.7-3.3C298.5,223.9,299.1,224.5,299.8,225.6z"/>
	<path class="st3" d="M217,223.6c-0.2,0.6-0.6,1-1,1.4c0,0-0.3-0.3-0.4-0.5C216,224.1,216.4,223.7,217,223.6z"/>
	<path class="st3" d="M173.3,230.1c-0.1-0.1-0.1-0.3-0.1-0.2C173.3,230.1,173.3,230.1,173.3,230.1z"/>
	<path class="st6" d="M566.9,182.2c0.2-0.2,0.4-0.4,0.6-0.5c-0.1,0.1-0.1,0.3-0.4,0.5C566.9,182.3,566.9,182.2,566.9,182.2z"/>
	<path class="st7" d="M190.5,202.6c-0.3-0.6-0.3-1.1-0.3-1.7c0.2,0,0.7,0,0.7,0C190.8,201.4,190.8,202,190.5,202.6z"/>
	<path class="st7" d="M195.7,204.7c-0.6,0.3-1.1,0.3-1.7,0.3c0,0,0-0.4,0-0.7C194.6,204.4,195.1,204.4,195.7,204.7z"/>
	<path class="st7" d="M199.2,206.8c0.3,0.6,0.3,1.1,0.3,1.7c0,0-0.6,0-0.6,0C198.9,207.9,198.9,207.3,199.2,206.8z"/>
	<path class="st6" d="M550.7,149.4c-0.4,0.7-1.2,1.4-2.2,1.8C548.9,150.4,549.6,149.9,550.7,149.4z"/>
	<path class="st3" d="M336.5,156.8c2.3,2.4,4.1,4.8,6.4,7.9c-13.8,4.1-26.6,9.9-41.3,6.8c-1.8-4-3.1-8.2-4.6-12.3
		c-0.9-2.5-2-4.9-3.1-7.8c7.7-1,15.5-2,23.2-1.8c3.5,0.1,6.9,2.4,10.3,3.7C330.3,154.5,333.1,155.7,336.5,156.8z"/>
	<path class="st9" d="M275.9,99.2c9.6,1,17,4.5,18.9,15c0.4,2.5,0.1,5.1,0.1,7.7c-0.6,0.4-1.2,0.8-1.7,1.2c-2.8-2.7-5.6-5.4-8.5-8
		c-2.7-2.4-6-4.4-7.9-7.3C275.5,105.6,275.9,102.2,275.9,99.2z"/>
	<path class="st9" d="M269.6,96.1c0.3,0.6,0.3,1.1,0.3,1.7c0,0-0.6,0-0.6,0C269.2,97.3,269.3,96.7,269.6,96.1z"/>
	<path class="st6" d="M566.9,123.9c0.2-0.2,0.4-0.3,0.6-0.5c-0.1,0.1-0.1,0.2-0.4,0.4C566.9,123.9,566.9,123.9,566.9,123.9z"/>
	<path class="st3" d="M266.7,263c0.2-0.2,0.4-0.3,0.6-0.5c-0.1,0.1-0.1,0.2-0.4,0.4C266.7,263,266.7,263,266.7,263z"/>
</g>
</svg>
