<svg xmlns="http://www.w3.org/2000/svg" viewBox="0 0 586.64 883.6"><g id="Capa_2" data-name="Capa 2"><path d="M130.72,540.23A1256.77,1256.77,0,0,0,289.53,553a1257.67,1257.67,0,0,0,207.83-13.79l43.91,82.5c1-1.18,13.39-15.84,28.35-13.11,6.09,1.11,10.42,4.7,13.4,7.18,8.42,7,11.41,15.54,13,20.26,2,5.82,3.58,10.69,1.44,16a17.27,17.27,0,0,1-6.61,7.79A25,25,0,0,1,582.3,657c-5.47-3.06-6.94-6.76-13.43-10.77a36.52,36.52,0,0,0-5.52-2.8q23.05,47.13,46.1,94.26a6.75,6.75,0,0,1-8.32,4.69L559,658.94,571.75,773.3A11.53,11.53,0,0,1,558.18,779a506.69,506.69,0,0,1-13.33-85.6c-1.17-17-1.41-33.1-1-48l-8.67.48a605.32,605.32,0,0,0-192,250.75,91.76,91.76,0,0,1-53.24-3A602.31,602.31,0,0,0,211.4,759.81,603,603,0,0,0,82.9,637L76.09,776.4a9.84,9.84,0,0,1-9.71,2.3,10.31,10.31,0,0,1-6.45-6.63Q65.26,716,70.57,659.85,50.65,701,30.74,742.13A5.08,5.08,0,0,1,22.87,737q16.1-34.9,32.18-69.8c-.57-2.45-1.14-4.91-1.7-7.36-6.16,1.49-13.81,2.32-17.77-1.77-8.86-9.13-.44-43.78,21.3-49,16.24-3.89,30.82,10.81,32,12Z" transform="translate(-22.81 -15.66)"/><path d="M511.83,243c-2.28-10-4.35-18.25-5.79-23.83,1.15-39.63,1.16-81.28-.34-124.76q-1.26-36.84-3.77-71.71l-17.51-7.08L480.34,18q-4.59,11.91-9.16,23.82-8.73,61.19-16,124.44-1.79,15.57-3.45,31c-1.08.83-2.8,2.15-4.93,3.74a372.49,372.49,0,0,1-34.38,22.81c-24,14.33-45.59,46.62-61.11,69.79-12.06,18-23.11,38-26,43.4-3.94,7.17-7.07,13.19-9.19,17.36a2.36,2.36,0,0,1-2.39.85,2.3,2.3,0,0,1-1.34-1A424.39,424.39,0,0,0,278.44,295c-16.21-23.65-36.77-53.07-73-78.55a242,242,0,0,0-26-15.91l-2-3.92L155,45.5,144,16.32l-22.38,6.8c-.86,9.32-1.94,23.65-2.23,41.2-.34,20.79.58,36.2.87,41.36,1.14,20.49,2.1,55.22,1.27,117.7A336.68,336.68,0,0,0,107,274.7a333.28,333.28,0,0,0-5.16,35.82,83.37,83.37,0,0,0,1.07,22.65c.43,2.25,1.2,5.78,5.37,18.38,2.8,8.47,5.3,15.48,7.14,20.51,4.06,12.76,7.93,26.27,11.49,40.51A666.79,666.79,0,0,1,140.79,485a91.27,91.27,0,0,0,31.55-2.45c12.75-3.35,18.49-8,35.75-14.3a208.75,208.75,0,0,1,24.84-7.34q19.78-2.91,41-5.17c19.77-2.07,38.78-3.47,56.93-4.34l80.43,15.83q17.15,5,35.23,11,13.67,4.56,26.52,9.3l8.72-2.18q6.33-26.16,12.51-52.82,5.24-22.61,10.21-44.94c16.37-27.89,19.71-51,20.18-65.38C525.34,302.3,520.84,282.55,511.83,243ZM160.17,201.51a13.41,13.41,0,0,1-3.06,3.4,28.06,28.06,0,0,1-6.5.81A28.7,28.7,0,0,1,139,203.37L138,69.26q-.16-6.3-.34-12.6l2.12-2.4c.45,1.82,1,4,1.57,6.5,0,0,.46,2,.91,3.9.89,3.86,9.17,58.16,19.57,132.77A13.18,13.18,0,0,1,160.17,201.51Zm328.51.17a31.51,31.51,0,0,1-4.77,2.21,32.33,32.33,0,0,1-8.68,1.88,8.87,8.87,0,0,1-5.27-2.05,9.05,9.05,0,0,1-3.07-6.12q1.86-20.22,4.09-40.86,5.53-51,12.82-99l1.53,0q.94,17.08,1.65,34.49Q489.23,148.5,488.68,201.68Z" transform="translate(-22.81 -15.66)"/></g></svg>